# Blender 3.6.7
# www.blender.org
mtllib chateauGlow.mtl
o model_0
v -1.500000 76.500000 -34.000000
v -1.500000 76.500000 -33.500000
v -1.500000 78.000000 -33.500000
v -1.500000 78.000000 -34.000000
v -1.000000 75.500000 -34.000000
v -1.000000 75.500000 -33.500000
v -1.000000 76.000000 -33.500000
v -1.000000 76.000000 -34.000000
v -0.500000 76.500000 -33.500000
v -0.500000 76.500000 -34.000000
v -0.500000 77.000000 -34.000000
v -0.500000 77.000000 -33.500000
v -0.500000 77.500000 -33.500000
v -0.500000 77.500000 -34.000000
v -0.500000 78.000000 -34.000000
v -0.500000 78.000000 -33.500000
v -1.000000 78.500000 -34.000000
v -1.000000 78.500000 -33.500000
v -1.000000 79.000000 -33.500000
v -1.000000 79.000000 -34.000000
v -0.500000 75.000000 -34.000000
v -0.500000 75.000000 -33.500000
v -0.500000 75.500000 -33.500000
v -0.500000 75.500000 -34.000000
v -0.500000 76.000000 -34.000000
v -0.500000 76.000000 -33.500000
v -0.500000 78.500000 -33.500000
v -0.500000 78.500000 -34.000000
v -0.500000 79.000000 -34.000000
v -0.500000 79.000000 -33.500000
v -0.500000 79.500000 -33.500000
v -0.500000 79.500000 -34.000000
v 0.000000 76.500000 -34.000000
v 0.000000 76.500000 -33.500000
v 0.000000 77.000000 -33.500000
v 0.000000 77.000000 -34.000000
v 0.500000 76.500000 -33.500000
v 0.500000 76.500000 -34.000000
v 0.500000 77.000000 -34.000000
v 0.500000 77.000000 -33.500000
v 0.000000 77.500000 -34.000000
v 0.000000 77.500000 -33.500000
v 0.000000 78.000000 -33.500000
v 0.000000 78.000000 -34.000000
v 0.500000 77.500000 -33.500000
v 0.500000 77.500000 -34.000000
v 0.500000 78.000000 -34.000000
v 0.500000 78.000000 -33.500000
v 1.000000 75.000000 -33.500000
v 1.000000 75.000000 -34.000000
v 1.000000 75.500000 -34.000000
v 1.000000 75.500000 -33.500000
v 1.000000 76.000000 -33.500000
v 1.000000 76.000000 -34.000000
v 1.000000 76.500000 -34.000000
v 1.000000 76.500000 -33.500000
v 1.000000 78.000000 -33.500000
v 1.000000 78.000000 -34.000000
v 1.000000 78.500000 -34.000000
v 1.000000 78.500000 -33.500000
v 1.000000 79.000000 -33.500000
v 1.000000 79.000000 -34.000000
v 1.000000 79.500000 -34.000000
v 1.000000 79.500000 -33.500000
v 1.500000 75.500000 -33.500000
v 1.500000 75.500000 -34.000000
v 1.500000 76.000000 -34.000000
v 1.500000 76.000000 -33.500000
v 1.000000 77.000000 -33.500000
v 1.000000 77.000000 -34.000000
v 1.000000 77.500000 -34.000000
v 1.000000 77.500000 -33.500000
v 1.500000 78.500000 -33.500000
v 1.500000 78.500000 -34.000000
v 1.500000 79.000000 -34.000000
v 1.500000 79.000000 -33.500000
v 2.000000 76.500000 -33.500000
v 2.000000 76.500000 -34.000000
v 2.000000 78.000000 -34.000000
v 2.000000 78.000000 -33.500000
v 2.000000 77.000000 -33.500000
v 2.000000 77.500000 -33.500000
v 2.000000 77.000000 -34.000000
v 2.000000 77.500000 -34.000000
vn -1.0000 -0.0000 -0.0000
vn 1.0000 -0.0000 -0.0000
vn -0.0000 -0.0000 1.0000
vn -0.0000 -0.0000 -1.0000
vn -0.0000 -1.0000 -0.0000
vn -0.0000 1.0000 -0.0000
s 0
usemtl EXP_Chateau-1.vox_Material_16
f 1//1 2//1 3//1 4//1
f 5//1 6//1 7//1 8//1
f 9//2 10//2 11//2 12//2
f 13//2 14//2 15//2 16//2
f 17//1 18//1 19//1 20//1
f 21//1 22//1 23//1 24//1
f 25//1 26//1 9//1 10//1
f 15//1 16//1 27//1 28//1
f 29//1 30//1 31//1 32//1
f 33//1 34//1 35//1 36//1
f 37//2 38//2 39//2 40//2
f 41//1 42//1 43//1 44//1
f 45//2 46//2 47//2 48//2
f 49//2 50//2 51//2 52//2
f 53//2 54//2 55//2 56//2
f 57//2 58//2 59//2 60//2
f 61//2 62//2 63//2 64//2
f 65//2 66//2 67//2 68//2
f 55//1 56//1 69//1 70//1
f 71//1 72//1 57//1 58//1
f 73//2 74//2 75//2 76//2
f 77//2 78//2 79//2 80//2
f 2//3 9//3 16//3 3//3
f 10//4 1//4 4//4 15//4
f 6//3 65//3 68//3 7//3
f 66//4 5//4 8//4 67//4
f 18//3 73//3 76//3 19//3
f 74//4 17//4 20//4 75//4
f 22//3 49//3 52//3 23//3
f 50//4 21//4 24//4 51//4
f 26//3 53//3 56//3 9//3
f 54//4 25//4 10//4 55//4
f 12//3 81//3 82//3 13//3
f 83//4 11//4 14//4 84//4
f 16//3 57//3 60//3 27//3
f 58//4 15//4 28//4 59//4
f 30//3 61//3 64//3 31//3
f 62//4 29//4 32//4 63//4
f 34//3 37//3 40//3 35//3
f 38//4 33//4 36//4 39//4
f 42//3 45//3 48//3 43//3
f 46//4 41//4 44//4 47//4
f 56//3 77//3 81//3 69//3
f 78//4 55//4 70//4 83//4
f 72//3 82//3 80//3 57//3
f 84//4 71//4 58//4 79//4
f 21//5 50//5 49//5 22//5
f 5//5 24//5 23//5 6//5
f 7//6 26//6 25//6 8//6
f 51//5 66//5 65//5 52//5
f 53//6 68//6 67//6 54//6
f 9//6 34//6 33//6 10//6
f 37//6 56//6 55//6 38//6
f 1//5 10//5 9//5 2//5
f 55//5 78//5 77//5 56//5
f 11//5 36//5 35//5 12//5
f 13//6 42//6 41//6 14//6
f 39//5 70//5 69//5 40//5
f 45//6 72//6 71//6 46//6
f 3//6 16//6 15//6 4//6
f 57//6 80//6 79//6 58//6
f 15//5 44//5 43//5 16//5
f 47//5 58//5 57//5 48//5
f 17//5 28//5 27//5 18//5
f 19//6 30//6 29//6 20//6
f 59//5 74//5 73//5 60//5
f 61//6 76//6 75//6 62//6
f 31//6 64//6 63//6 32//6
