# Blender 3.6.7
# www.blender.org
mtllib pKnightRShoulder.mtl
o rightShoulder
v -2.000000 -1.500000 1.500000
v -2.000000 -0.500000 1.500000
v -2.000000 -1.500000 0.500000
v -1.000000 -1.500000 1.500000
v -2.000000 -0.500000 0.500000
v -1.000000 -1.500000 0.500000
v -1.000000 -1.500000 -0.500000
v 0.000000 -1.500000 0.500000
v 0.000000 -0.500000 0.500000
v 0.000000 -1.500000 -0.500000
v -2.000000 -1.500000 -0.500000
v -2.000000 -1.500000 -1.500000
v -2.000000 -0.500000 -1.500000
v -1.000000 -1.500000 -1.500000
v -2.000000 0.500000 1.500000
v -2.000000 0.500000 0.500000
v -1.000000 -0.500000 1.500000
v -1.000000 0.500000 1.500000
v 0.000000 -0.500000 1.500000
v 0.000000 0.500000 1.500000
v -3.000000 -0.500000 0.500000
v -3.000000 -0.500000 -0.500000
v -3.000000 0.500000 -0.500000
v -2.000000 -0.500000 -0.500000
v -1.000000 -0.500000 0.500000
v 0.000000 -0.500000 -0.500000
v 0.000000 0.500000 -0.500000
v -2.000000 0.500000 -0.500000
v -2.000000 0.500000 -1.500000
v -1.000000 0.500000 -1.500000
v -1.000000 -0.500000 -0.500000
v -1.000000 0.500000 -0.500000
v -1.000000 -0.500000 -1.500000
v 0.000000 -0.500000 -1.500000
v 0.000000 0.500000 -1.500000
v -3.000000 0.500000 1.500000
v -3.000000 1.500000 0.500000
v -1.000000 1.500000 1.500000
v 0.000000 1.500000 1.500000
v 0.000000 0.500000 0.500000
v 0.000000 1.500000 0.500000
v -3.000000 0.500000 0.500000
v -2.000000 1.500000 0.500000
v -2.000000 1.500000 -0.500000
v -1.000000 0.500000 0.500000
v -1.000000 1.500000 0.500000
v -1.000000 1.500000 -0.500000
v -3.000000 1.500000 -0.500000
v -3.000000 0.500000 -1.500000
v -3.000000 1.500000 -1.500000
v -1.000000 1.500000 -1.500000
v 0.000000 1.500000 -0.500000
v 0.000000 1.500000 -1.500000
v -3.000000 1.500000 1.500000
v -3.000000 2.500000 1.500000
v -3.000000 2.500000 0.500000
v -2.000000 1.500000 1.500000
v -2.000000 2.500000 1.500000
v -2.000000 2.500000 0.500000
v -3.000000 2.500000 -0.500000
v -3.000000 2.500000 -1.500000
v -2.000000 2.500000 -0.500000
v -2.000000 1.500000 -1.500000
v -2.000000 2.500000 -1.500000
vn -1.0000 -0.0000 -0.0000
vn -0.0000 -0.0000 -1.0000
vn 1.0000 -0.0000 -0.0000
vn -0.0000 -0.0000 1.0000
vn -0.0000 -1.0000 -0.0000
vn -0.0000 1.0000 -0.0000
vt 0.375000 0.000000
vt 0.625000 0.000000
vt 0.625000 0.250000
vt 0.375000 0.250000
vt 0.625000 0.500000
vt 0.375000 0.500000
vt 0.625000 0.750000
vt 0.375000 0.750000
vt 0.625000 1.000000
vt 0.375000 1.000000
vt 0.125000 0.500000
vt 0.125000 0.750000
vt 0.875000 0.500000
vt 0.875000 0.750000
s 0
usemtl Voxel_mat254.001
f 1/1/1 2/2/1 5/3/1 3/4/1
f 3/4/2 5/3/2 25/5/2 6/6/2
f 6/6/3 25/5/3 17/7/3 4/8/3
f 4/8/4 17/7/4 2/9/4 1/10/4
f 3/11/5 6/6/5 4/8/5 1/12/5
f 25/5/6 5/13/6 2/14/6 17/7/6
f 3/1/1 5/2/1 24/3/1 11/4/1
f 11/4/2 24/3/2 31/5/2 7/6/2
f 7/6/3 31/5/3 25/7/3 6/8/3
f 11/11/5 7/6/5 6/8/5 3/12/5
f 31/5/6 24/13/6 5/14/6 25/7/6
f 7/4/2 31/3/2 26/5/2 10/6/2
f 10/6/3 26/5/3 9/7/3 8/8/3
f 8/8/4 9/7/4 25/9/4 6/10/4
f 7/11/5 10/6/5 8/8/5 6/12/5
f 26/5/6 31/13/6 25/14/6 9/7/6
f 11/1/1 24/2/1 13/3/1 12/4/1
f 12/4/2 13/3/2 33/5/2 14/6/2
f 14/6/3 33/5/3 31/7/3 7/8/3
f 12/11/5 14/6/5 7/8/5 11/12/5
f 33/5/6 13/13/6 24/14/6 31/7/6
f 2/1/1 15/2/1 16/3/1 5/4/1
f 5/4/2 16/3/2 45/5/2 25/6/2
f 25/6/3 45/5/3 18/7/3 17/8/3
f 17/8/4 18/7/4 15/9/4 2/10/4
f 45/5/6 16/13/6 15/14/6 18/7/6
f 25/4/2 45/3/2 40/5/2 9/6/2
f 9/6/3 40/5/3 20/7/3 19/8/3
f 19/8/4 20/7/4 18/9/4 17/10/4
f 25/11/5 9/6/5 19/8/5 17/12/5
f 40/5/6 45/13/6 18/14/6 20/7/6
f 25/1/1 45/2/1 32/3/1 31/4/1
f 31/4/2 32/3/2 27/5/2 26/6/2
f 26/6/3 27/5/3 40/7/3 9/8/3
f 27/5/6 32/13/6 45/14/6 40/7/6
f 24/1/1 28/2/1 29/3/1 13/4/1
f 13/4/2 29/3/2 30/5/2 33/6/2
f 33/6/3 30/5/3 32/7/3 31/8/3
f 31/8/4 32/7/4 28/9/4 24/10/4
f 30/5/6 29/13/6 28/14/6 32/7/6
f 33/4/2 30/3/2 35/5/2 34/6/2
f 34/6/3 35/5/3 27/7/3 26/8/3
f 33/11/5 34/6/5 26/8/5 31/12/5
f 35/5/6 30/13/6 32/14/6 27/7/6
f 18/1/1 38/2/1 46/3/1 45/4/1
f 45/4/2 46/3/2 41/5/2 40/6/2
f 40/6/3 41/5/3 39/7/3 20/8/3
f 20/8/4 39/7/4 38/9/4 18/10/4
f 41/5/6 46/13/6 38/14/6 39/7/6
f 32/1/1 47/2/1 51/3/1 30/4/1
f 30/4/2 51/3/2 53/5/2 35/6/2
f 35/6/3 53/5/3 52/7/3 27/8/3
f 53/5/6 51/13/6 47/14/6 52/7/6
usemtl Voxel_mat255.001
f 21/1/1 42/2/1 23/3/1 22/4/1
f 22/4/2 23/3/2 28/5/2 24/6/2
f 24/6/3 28/5/3 16/7/3 5/8/3
f 5/8/4 16/7/4 42/9/4 21/10/4
f 22/11/5 24/6/5 5/8/5 21/12/5
f 28/5/6 23/13/6 42/14/6 16/7/6
f 36/1/1 54/2/1 37/3/1 42/4/1
f 42/4/2 37/3/2 43/5/2 16/6/2
f 16/6/3 43/5/3 57/7/3 15/8/3
f 15/8/4 57/7/4 54/9/4 36/10/4
f 42/11/5 16/6/5 15/8/5 36/12/5
f 43/5/6 37/13/6 54/14/6 57/7/6
f 28/4/2 44/3/2 47/5/2 32/6/2
f 32/6/3 47/5/3 46/7/3 45/8/3
f 45/8/4 46/7/4 43/9/4 16/10/4
f 28/11/5 32/6/5 45/8/5 16/12/5
f 47/5/6 44/13/6 43/14/6 46/7/6
f 32/4/2 47/3/2 52/5/2 27/6/2
f 27/6/3 52/5/3 41/7/3 40/8/3
f 52/5/6 47/13/6 46/14/6 41/7/6
f 23/1/1 48/2/1 50/3/1 49/4/1
f 49/4/2 50/3/2 63/5/2 29/6/2
f 29/6/3 63/5/3 44/7/3 28/8/3
f 49/11/5 29/6/5 28/8/5 23/12/5
f 63/5/6 50/13/6 48/14/6 44/7/6
f 54/1/1 55/2/1 56/3/1 37/4/1
f 37/4/2 56/3/2 59/5/2 43/6/2
f 43/6/3 59/5/3 58/7/3 57/8/3
f 57/8/4 58/7/4 55/9/4 54/10/4
f 59/5/6 56/13/6 55/14/6 58/7/6
f 48/1/1 60/2/1 61/3/1 50/4/1
f 50/4/2 61/3/2 64/5/2 63/6/2
f 63/6/3 64/5/3 62/7/3 44/8/3
f 44/8/4 62/7/4 60/9/4 48/10/4
f 64/5/6 61/13/6 60/14/6 62/7/6
usemtl Voxel_mat237.001
f 42/1/1 37/2/1 48/3/1 23/4/1
f 23/4/2 48/3/2 44/5/2 28/6/2
f 28/6/3 44/5/3 43/7/3 16/8/3
f 44/5/6 48/13/6 37/14/6 43/7/6
