# Blender 3.6.7
# www.blender.org
mtllib pKnightLLeg.mtl
o leftLeg
v -1.500000 0.000000 0.500000
v -1.500000 1.000000 0.500000
v -0.500000 0.000000 0.500000
v 0.500000 0.000000 0.500000
v 1.500000 0.000000 0.500000
v -1.500000 0.000000 -0.500000
v -1.500000 0.000000 -1.500000
v -1.500000 1.000000 -1.500000
v -0.500000 0.000000 -1.500000
v -0.500000 0.000000 -0.500000
v 0.500000 0.000000 -0.500000
v 0.500000 0.000000 -1.500000
v 1.500000 0.000000 -0.500000
v 1.500000 0.000000 -1.500000
v -1.500000 2.000000 0.500000
v -1.500000 2.000000 -0.500000
v -0.500000 1.000000 0.500000
v -0.500000 1.000000 -0.500000
v 0.500000 1.000000 -0.500000
v 0.500000 1.000000 0.500000
v 0.500000 2.000000 0.500000
v 1.500000 1.000000 0.500000
v 1.500000 2.000000 -0.500000
v -1.500000 1.000000 -0.500000
v -0.500000 2.000000 -0.500000
v -0.500000 1.000000 -1.500000
v 0.500000 1.000000 -1.500000
v 1.500000 1.000000 -0.500000
v 1.500000 1.000000 -1.500000
v -0.500000 2.000000 0.500000
v -0.500000 3.000000 -0.500000
v 0.500000 3.000000 0.500000
v 0.500000 3.000000 -0.500000
v 1.500000 2.000000 0.500000
v 1.500000 3.000000 0.500000
v 1.500000 3.000000 -0.500000
v -1.500000 3.000000 -0.500000
v -1.500000 2.000000 -1.500000
v -1.500000 3.000000 -1.500000
v -0.500000 2.000000 -1.500000
v 0.500000 2.000000 -0.500000
v 0.500000 2.000000 -1.500000
v 0.500000 3.000000 -1.500000
v 1.500000 2.000000 -1.500000
v 1.500000 3.000000 -1.500000
v -0.500000 3.000000 1.500000
v -0.500000 4.000000 1.500000
v -0.500000 4.000000 0.500000
v 0.500000 3.000000 1.500000
v 1.500000 3.000000 1.500000
v 1.500000 4.000000 1.500000
v -1.500000 3.000000 0.500000
v -1.500000 4.000000 0.500000
v -1.500000 4.000000 -0.500000
v -0.500000 3.000000 0.500000
v -0.500000 4.000000 -0.500000
v -1.500000 4.000000 -1.500000
v -0.500000 3.000000 -1.500000
v -0.500000 4.000000 -1.500000
v 0.500000 4.000000 -0.500000
v 0.500000 4.000000 -1.500000
v 1.500000 4.000000 -0.500000
v 1.500000 4.000000 -1.500000
v -0.500000 5.000000 1.500000
v -0.500000 5.000000 0.500000
v 0.500000 4.000000 1.500000
v 0.500000 4.000000 0.500000
v 0.500000 5.000000 1.500000
v 0.500000 5.000000 0.500000
v 1.500000 5.000000 1.500000
v 1.500000 4.000000 0.500000
v 1.500000 5.000000 0.500000
vn -1.0000 -0.0000 -0.0000
vn -0.0000 -0.0000 -1.0000
vn 1.0000 -0.0000 -0.0000
vn -0.0000 -0.0000 1.0000
vn -0.0000 -1.0000 -0.0000
vn -0.0000 1.0000 -0.0000
vt 0.375000 0.000000
vt 0.625000 0.000000
vt 0.625000 0.250000
vt 0.375000 0.250000
vt 0.625000 0.500000
vt 0.375000 0.500000
vt 0.625000 0.750000
vt 0.375000 0.750000
vt 0.625000 1.000000
vt 0.375000 1.000000
vt 0.125000 0.500000
vt 0.125000 0.750000
vt 0.875000 0.500000
vt 0.875000 0.750000
s 0
usemtl Voxel_mat254.001
f 1/1/1 2/2/1 24/3/1 6/4/1
f 6/4/2 24/3/2 18/5/2 10/6/2
f 10/6/3 18/5/3 17/7/3 3/8/3
f 3/8/4 17/7/4 2/9/4 1/10/4
f 6/11/5 10/6/5 3/8/5 1/12/5
f 18/5/6 24/13/6 2/14/6 17/7/6
f 10/4/2 18/3/2 19/5/2 11/6/2
f 11/6/3 19/5/3 20/7/3 4/8/3
f 4/8/4 20/7/4 17/9/4 3/10/4
f 10/11/5 11/6/5 4/8/5 3/12/5
f 19/5/6 18/13/6 17/14/6 20/7/6
f 11/4/2 19/3/2 28/5/2 13/6/2
f 13/6/3 28/5/3 22/7/3 5/8/3
f 5/8/4 22/7/4 20/9/4 4/10/4
f 11/11/5 13/6/5 5/8/5 4/12/5
f 28/5/6 19/13/6 20/14/6 22/7/6
f 2/1/1 15/2/1 16/3/1 24/4/1
f 24/4/2 16/3/2 25/5/2 18/6/2
f 18/6/3 25/5/3 30/7/3 17/8/3
f 17/8/4 30/7/4 15/9/4 2/10/4
f 25/5/6 16/13/6 15/14/6 30/7/6
f 18/4/2 25/3/2 41/5/2 19/6/2
f 19/6/3 41/5/3 21/7/3 20/8/3
f 20/8/4 21/7/4 30/9/4 17/10/4
f 41/5/6 25/13/6 30/14/6 21/7/6
f 19/4/2 41/3/2 23/5/2 28/6/2
f 28/6/3 23/5/3 34/7/3 22/8/3
f 22/8/4 34/7/4 21/9/4 20/10/4
f 23/5/6 41/13/6 21/14/6 34/7/6
f 24/1/1 16/2/1 38/3/1 8/4/1
f 8/4/2 38/3/2 40/5/2 26/6/2
f 26/6/3 40/5/3 25/7/3 18/8/3
f 40/5/6 38/13/6 16/14/6 25/7/6
f 26/4/2 40/3/2 42/5/2 27/6/2
f 27/6/3 42/5/3 41/7/3 19/8/3
f 42/5/6 40/13/6 25/14/6 41/7/6
f 27/4/2 42/3/2 44/5/2 29/6/2
f 29/6/3 44/5/3 23/7/3 28/8/3
f 44/5/6 42/13/6 41/14/6 23/7/6
f 15/1/1 52/2/1 37/3/1 16/4/1
f 16/4/2 37/3/2 31/5/2 25/6/2
f 25/6/3 31/5/3 55/7/3 30/8/3
f 30/8/4 55/7/4 52/9/4 15/10/4
f 31/5/6 37/13/6 52/14/6 55/7/6
f 25/4/2 31/3/2 33/5/2 41/6/2
f 41/6/3 33/5/3 32/7/3 21/8/3
f 21/8/4 32/7/4 55/9/4 30/10/4
f 33/5/6 31/13/6 55/14/6 32/7/6
f 41/4/2 33/3/2 36/5/2 23/6/2
f 23/6/3 36/5/3 35/7/3 34/8/3
f 34/8/4 35/7/4 32/9/4 21/10/4
f 36/5/6 33/13/6 32/14/6 35/7/6
f 16/1/1 37/2/1 39/3/1 38/4/1
f 38/4/2 39/3/2 58/5/2 40/6/2
f 40/6/3 58/5/3 31/7/3 25/8/3
f 58/5/6 39/13/6 37/14/6 31/7/6
f 40/4/2 58/3/2 43/5/2 42/6/2
f 42/6/3 43/5/3 33/7/3 41/8/3
f 43/5/6 58/13/6 31/14/6 33/7/6
f 42/4/2 43/3/2 45/5/2 44/6/2
f 44/6/3 45/5/3 36/7/3 23/8/3
f 45/5/6 43/13/6 33/14/6 36/7/6
usemtl Voxel_mat247.001
f 6/1/1 24/2/1 8/3/1 7/4/1
f 7/4/2 8/3/2 26/5/2 9/6/2
f 9/6/3 26/5/3 18/7/3 10/8/3
f 7/11/5 9/6/5 10/8/5 6/12/5
f 26/5/6 8/13/6 24/14/6 18/7/6
f 9/4/2 26/3/2 27/5/2 12/6/2
f 12/6/3 27/5/3 19/7/3 11/8/3
f 9/11/5 12/6/5 11/8/5 10/12/5
f 27/5/6 26/13/6 18/14/6 19/7/6
f 12/4/2 27/3/2 29/5/2 14/6/2
f 14/6/3 29/5/3 28/7/3 13/8/3
f 12/11/5 14/6/5 13/8/5 11/12/5
f 29/5/6 27/13/6 19/14/6 28/7/6
usemtl Voxel_mat255.001
f 46/1/1 47/2/1 48/3/1 55/4/1
f 55/4/2 48/3/2 67/5/2 32/6/2
f 32/6/3 67/5/3 66/7/3 49/8/3
f 49/8/4 66/7/4 47/9/4 46/10/4
f 55/11/5 32/6/5 49/8/5 46/12/5
f 67/5/6 48/13/6 47/14/6 66/7/6
f 32/4/2 67/3/2 71/5/2 35/6/2
f 35/6/3 71/5/3 51/7/3 50/8/3
f 50/8/4 51/7/4 66/9/4 49/10/4
f 32/11/5 35/6/5 50/8/5 49/12/5
f 71/5/6 67/13/6 66/14/6 51/7/6
f 52/1/1 53/2/1 54/3/1 37/4/1
f 37/4/2 54/3/2 56/5/2 31/6/2
f 31/6/3 56/5/3 48/7/3 55/8/3
f 55/8/4 48/7/4 53/9/4 52/10/4
f 56/5/6 54/13/6 53/14/6 48/7/6
f 32/1/1 67/2/1 60/3/1 33/4/1
f 33/4/2 60/3/2 62/5/2 36/6/2
f 36/6/3 62/5/3 71/7/3 35/8/3
f 62/5/6 60/13/6 67/14/6 71/7/6
f 37/1/1 54/2/1 57/3/1 39/4/1
f 39/4/2 57/3/2 59/5/2 58/6/2
f 58/6/3 59/5/3 56/7/3 31/8/3
f 59/5/6 57/13/6 54/14/6 56/7/6
f 33/1/1 60/2/1 61/3/1 43/4/1
f 43/4/2 61/3/2 63/5/2 45/6/2
f 45/6/3 63/5/3 62/7/3 36/8/3
f 63/5/6 61/13/6 60/14/6 62/7/6
f 47/1/1 64/2/1 65/3/1 48/4/1
f 48/4/2 65/3/2 69/5/2 67/6/2
f 67/6/3 69/5/3 68/7/3 66/8/3
f 66/8/4 68/7/4 64/9/4 47/10/4
f 69/5/6 65/13/6 64/14/6 68/7/6
f 67/4/2 69/3/2 72/5/2 71/6/2
f 71/6/3 72/5/3 70/7/3 51/8/3
f 51/8/4 70/7/4 68/9/4 66/10/4
f 72/5/6 69/13/6 68/14/6 70/7/6
