# Blender 3.6.7
# www.blender.org
mtllib pKnightLShoulder.mtl
o leftShoulder
v 1.000000 -1.500000 1.500000
v 1.000000 -1.500000 0.500000
v 2.000000 -1.500000 1.500000
v 0.000000 -1.500000 0.500000
v 0.000000 -1.500000 -0.500000
v 2.000000 -1.500000 0.500000
v 2.000000 -0.500000 0.500000
v 1.000000 -1.500000 -0.500000
v 1.000000 -1.500000 -1.500000
v 2.000000 -1.500000 -0.500000
v 2.000000 -0.500000 -0.500000
v 2.000000 -1.500000 -1.500000
v 2.000000 -0.500000 -1.500000
v 0.000000 -0.500000 1.500000
v 0.000000 0.500000 1.500000
v 0.000000 -0.500000 0.500000
v 0.000000 0.500000 0.500000
v 1.000000 0.500000 1.500000
v 1.000000 -0.500000 1.500000
v 1.000000 -0.500000 0.500000
v 2.000000 -0.500000 1.500000
v 2.000000 0.500000 1.500000
v 1.000000 -0.500000 -0.500000
v 1.000000 0.500000 0.500000
v 1.000000 0.500000 -0.500000
v 0.000000 -0.500000 -0.500000
v 0.000000 -0.500000 -1.500000
v 1.000000 -0.500000 -1.500000
v 1.000000 0.500000 -1.500000
v 2.000000 0.500000 -0.500000
v 2.000000 0.500000 -1.500000
v 0.000000 1.500000 1.500000
v 1.000000 1.500000 1.500000
v 0.000000 1.500000 0.500000
v 0.000000 0.500000 -0.500000
v 1.000000 1.500000 0.500000
v 2.000000 0.500000 0.500000
v 2.000000 1.500000 0.500000
v 2.000000 1.500000 -0.500000
v 0.000000 1.500000 -0.500000
v 0.000000 0.500000 -1.500000
v 0.000000 1.500000 -1.500000
v 1.000000 1.500000 -0.500000
v 1.000000 1.500000 -1.500000
vn -1.0000 -0.0000 -0.0000
vn -0.0000 -0.0000 -1.0000
vn 1.0000 -0.0000 -0.0000
vn -0.0000 -0.0000 1.0000
vn -0.0000 -1.0000 -0.0000
vn -0.0000 1.0000 -0.0000
vt 0.375000 0.000000
vt 0.625000 0.000000
vt 0.625000 0.250000
vt 0.375000 0.250000
vt 0.625000 0.500000
vt 0.375000 0.500000
vt 0.625000 0.750000
vt 0.375000 0.750000
vt 0.625000 1.000000
vt 0.375000 1.000000
vt 0.125000 0.500000
vt 0.125000 0.750000
vt 0.875000 0.500000
vt 0.875000 0.750000
s 0
usemtl Voxel_mat254.001
f 1/1/1 19/2/1 20/3/1 2/4/1
f 2/4/2 20/3/2 7/5/2 6/6/2
f 6/6/3 7/5/3 21/7/3 3/8/3
f 3/8/4 21/7/4 19/9/4 1/10/4
f 2/11/5 6/6/5 3/8/5 1/12/5
f 7/5/6 20/13/6 19/14/6 21/7/6
f 4/1/1 16/2/1 26/3/1 5/4/1
f 5/4/2 26/3/2 23/5/2 8/6/2
f 8/6/3 23/5/3 20/7/3 2/8/3
f 2/8/4 20/7/4 16/9/4 4/10/4
f 5/11/5 8/6/5 2/8/5 4/12/5
f 23/5/6 26/13/6 16/14/6 20/7/6
f 8/4/2 23/3/2 11/5/2 10/6/2
f 10/6/3 11/5/3 7/7/3 6/8/3
f 8/11/5 10/6/5 6/8/5 2/12/5
f 11/5/6 23/13/6 20/14/6 7/7/6
f 8/1/1 23/2/1 28/3/1 9/4/1
f 9/4/2 28/3/2 13/5/2 12/6/2
f 12/6/3 13/5/3 11/7/3 10/8/3
f 9/11/5 12/6/5 10/8/5 8/12/5
f 13/5/6 28/13/6 23/14/6 11/7/6
f 14/1/1 15/2/1 17/3/1 16/4/1
f 16/4/2 17/3/2 24/5/2 20/6/2
f 20/6/3 24/5/3 18/7/3 19/8/3
f 19/8/4 18/7/4 15/9/4 14/10/4
f 16/11/5 20/6/5 19/8/5 14/12/5
f 24/5/6 17/13/6 15/14/6 18/7/6
f 20/4/2 24/3/2 37/5/2 7/6/2
f 7/6/3 37/5/3 22/7/3 21/8/3
f 21/8/4 22/7/4 18/9/4 19/10/4
f 37/5/6 24/13/6 18/14/6 22/7/6
f 16/1/1 17/2/1 35/3/1 26/4/1
f 26/4/2 35/3/2 25/5/2 23/6/2
f 23/6/3 25/5/3 24/7/3 20/8/3
f 25/5/6 35/13/6 17/14/6 24/7/6
f 26/1/1 35/2/1 41/3/1 27/4/1
f 27/4/2 41/3/2 29/5/2 28/6/2
f 28/6/3 29/5/3 25/7/3 23/8/3
f 27/11/5 28/6/5 23/8/5 26/12/5
f 29/5/6 41/13/6 35/14/6 25/7/6
f 28/4/2 29/3/2 31/5/2 13/6/2
f 13/6/3 31/5/3 30/7/3 11/8/3
f 31/5/6 29/13/6 25/14/6 30/7/6
f 15/1/1 32/2/1 34/3/1 17/4/1
f 17/4/2 34/3/2 36/5/2 24/6/2
f 24/6/3 36/5/3 33/7/3 18/8/3
f 18/8/4 33/7/4 32/9/4 15/10/4
f 36/5/6 34/13/6 32/14/6 33/7/6
f 35/1/1 40/2/1 42/3/1 41/4/1
f 41/4/2 42/3/2 44/5/2 29/6/2
f 29/6/3 44/5/3 43/7/3 25/8/3
f 44/5/6 42/13/6 40/14/6 43/7/6
usemtl Voxel_mat255.001
f 23/4/2 25/3/2 30/5/2 11/6/2
f 11/6/3 30/5/3 37/7/3 7/8/3
f 30/5/6 25/13/6 24/14/6 37/7/6
f 17/1/1 34/2/1 40/3/1 35/4/1
f 35/4/2 40/3/2 43/5/2 25/6/2
f 25/6/3 43/5/3 36/7/3 24/8/3
f 43/5/6 40/13/6 34/14/6 36/7/6
f 25/4/2 43/3/2 39/5/2 30/6/2
f 30/6/3 39/5/3 38/7/3 37/8/3
f 37/8/4 38/7/4 36/9/4 24/10/4
f 39/5/6 43/13/6 36/14/6 38/7/6
