# Blender 3.6.7
# www.blender.org
mtllib pKnightRHand.mtl
o rightHand
v -1.500000 -3.000000 1.500000
v -1.500000 -2.000000 1.500000
v -1.500000 -3.000000 0.500000
v -0.500000 -3.000000 1.500000
v -0.500000 -2.000000 0.500000
v -0.500000 -2.000000 1.500000
v 0.500000 -3.000000 0.500000
v 0.500000 -2.000000 0.500000
v 0.500000 -3.000000 1.500000
v 1.500000 -3.000000 1.500000
v 1.500000 -2.000000 1.500000
v -0.500000 -3.000000 0.500000
v 1.500000 -3.000000 0.500000
v 1.500000 -2.000000 0.500000
v -1.500000 -3.000000 -0.500000
v -1.500000 -2.000000 -0.500000
v -1.500000 -3.000000 -1.500000
v -1.500000 -2.000000 -1.500000
v -0.500000 -2.000000 -0.500000
v -0.500000 -3.000000 -1.500000
v -0.500000 -3.000000 -0.500000
v 0.500000 -3.000000 -1.500000
v 0.500000 -2.000000 -1.500000
v 0.500000 -3.000000 -0.500000
v 1.500000 -3.000000 -0.500000
v 1.500000 -3.000000 -1.500000
v 1.500000 -2.000000 -1.500000
v -1.500000 -1.000000 1.500000
v -0.500000 -1.000000 1.500000
v -0.500000 -1.000000 0.500000
v 0.500000 -1.000000 0.500000
v 0.500000 -2.000000 1.500000
v 1.500000 -1.000000 1.500000
v -1.500000 -2.000000 0.500000
v 0.500000 -2.000000 -0.500000
v 0.500000 -1.000000 -0.500000
v 1.500000 -2.000000 -0.500000
v 1.500000 -1.000000 -0.500000
v -0.500000 -2.000000 -1.500000
v -0.500000 -1.000000 -1.500000
v 0.500000 -1.000000 -1.500000
v 1.500000 -1.000000 -1.500000
v -1.500000 0.000000 1.500000
v -0.500000 0.000000 1.500000
v 0.500000 -1.000000 1.500000
v 0.500000 0.000000 1.500000
v 0.500000 0.000000 0.500000
v 1.500000 0.000000 1.500000
v -1.500000 -1.000000 0.500000
v -1.500000 0.000000 0.500000
v -1.500000 -1.000000 -0.500000
v -1.500000 0.000000 -0.500000
v -0.500000 0.000000 0.500000
v -0.500000 -1.000000 -0.500000
v -0.500000 0.000000 -0.500000
v 1.500000 -1.000000 0.500000
v 1.500000 0.000000 0.500000
v 1.500000 0.000000 -0.500000
v -1.500000 -1.000000 -1.500000
v -1.500000 0.000000 -1.500000
v -0.500000 0.000000 -1.500000
v 0.500000 0.000000 -0.500000
v 0.500000 0.000000 -1.500000
v 1.500000 0.000000 -1.500000
vn -1.0000 -0.0000 -0.0000
vn -0.0000 -0.0000 -1.0000
vn 1.0000 -0.0000 -0.0000
vn -0.0000 -0.0000 1.0000
vn -0.0000 -1.0000 -0.0000
vn -0.0000 1.0000 -0.0000
vt 0.375000 0.000000
vt 0.625000 0.000000
vt 0.625000 0.250000
vt 0.375000 0.250000
vt 0.625000 0.500000
vt 0.375000 0.500000
vt 0.625000 0.750000
vt 0.375000 0.750000
vt 0.625000 1.000000
vt 0.375000 1.000000
vt 0.125000 0.500000
vt 0.125000 0.750000
vt 0.875000 0.500000
vt 0.875000 0.750000
s 0
usemtl Voxel_mat254.001
f 1/1/1 2/2/1 34/3/1 3/4/1
f 3/4/2 34/3/2 5/5/2 12/6/2
f 12/6/3 5/5/3 6/7/3 4/8/3
f 4/8/4 6/7/4 2/9/4 1/10/4
f 3/11/5 12/6/5 4/8/5 1/12/5
f 5/5/6 34/13/6 2/14/6 6/7/6
f 3/1/1 34/2/1 16/3/1 15/4/1
f 15/4/2 16/3/2 19/5/2 21/6/2
f 21/6/3 19/5/3 5/7/3 12/8/3
f 15/11/5 21/6/5 12/8/5 3/12/5
f 19/5/6 16/13/6 34/14/6 5/7/6
f 15/1/1 16/2/1 18/3/1 17/4/1
f 17/4/2 18/3/2 39/5/2 20/6/2
f 20/6/3 39/5/3 19/7/3 21/8/3
f 17/11/5 20/6/5 21/8/5 15/12/5
f 39/5/6 18/13/6 16/14/6 19/7/6
f 2/1/1 28/2/1 49/3/1 34/4/1
f 34/4/2 49/3/2 30/5/2 5/6/2
f 5/6/3 30/5/3 29/7/3 6/8/3
f 6/8/4 29/7/4 28/9/4 2/10/4
f 30/5/6 49/13/6 28/14/6 29/7/6
f 34/1/1 49/2/1 51/3/1 16/4/1
f 16/4/2 51/3/2 54/5/2 19/6/2
f 19/6/3 54/5/3 30/7/3 5/8/3
f 54/5/6 51/13/6 49/14/6 30/7/6
f 16/1/1 51/2/1 59/3/1 18/4/1
f 18/4/2 59/3/2 40/5/2 39/6/2
f 39/6/3 40/5/3 54/7/3 19/8/3
f 40/5/6 59/13/6 51/14/6 54/7/6
usemtl Voxel_mat247.001
f 5/4/2 30/3/2 31/5/2 8/6/2
f 8/6/3 31/5/3 45/7/3 32/8/3
f 32/8/4 45/7/4 29/9/4 6/10/4
f 31/5/6 30/13/6 29/14/6 45/7/6
f 39/4/2 40/3/2 41/5/2 23/6/2
f 23/6/3 41/5/3 36/7/3 35/8/3
f 35/8/4 36/7/4 54/9/4 19/10/4
f 41/5/6 40/13/6 54/14/6 36/7/6
usemtl Voxel_mat246.001
f 12/4/2 5/3/2 8/5/2 7/6/2
f 7/6/3 8/5/3 32/7/3 9/8/3
f 9/8/4 32/7/4 6/9/4 4/10/4
f 12/11/5 7/6/5 9/8/5 4/12/5
f 8/5/6 5/13/6 6/14/6 32/7/6
f 7/4/2 8/3/2 14/5/2 13/6/2
f 13/6/3 14/5/3 11/7/3 10/8/3
f 10/8/4 11/7/4 32/9/4 9/10/4
f 7/11/5 13/6/5 10/8/5 9/12/5
f 14/5/6 8/13/6 32/14/6 11/7/6
f 21/4/2 19/3/2 35/5/2 24/6/2
f 24/6/3 35/5/3 8/7/3 7/8/3
f 21/11/5 24/6/5 7/8/5 12/12/5
f 35/5/6 19/13/6 5/14/6 8/7/6
f 24/4/2 35/3/2 37/5/2 25/6/2
f 25/6/3 37/5/3 14/7/3 13/8/3
f 24/11/5 25/6/5 13/8/5 7/12/5
f 37/5/6 35/13/6 8/14/6 14/7/6
f 20/4/2 39/3/2 23/5/2 22/6/2
f 22/6/3 23/5/3 35/7/3 24/8/3
f 20/11/5 22/6/5 24/8/5 21/12/5
f 23/5/6 39/13/6 19/14/6 35/7/6
f 22/4/2 23/3/2 27/5/2 26/6/2
f 26/6/3 27/5/3 37/7/3 25/8/3
f 22/11/5 26/6/5 25/8/5 24/12/5
f 27/5/6 23/13/6 35/14/6 37/7/6
f 8/4/2 31/3/2 56/5/2 14/6/2
f 14/6/3 56/5/3 33/7/3 11/8/3
f 11/8/4 33/7/4 45/9/4 32/10/4
f 56/5/6 31/13/6 45/14/6 33/7/6
f 8/1/1 31/2/1 36/3/1 35/4/1
f 35/4/2 36/3/2 38/5/2 37/6/2
f 37/6/3 38/5/3 56/7/3 14/8/3
f 38/5/6 36/13/6 31/14/6 56/7/6
f 23/4/2 41/3/2 42/5/2 27/6/2
f 27/6/3 42/5/3 38/7/3 37/8/3
f 42/5/6 41/13/6 36/14/6 38/7/6
f 28/1/1 43/2/1 50/3/1 49/4/1
f 49/4/2 50/3/2 53/5/2 30/6/2
f 30/6/3 53/5/3 44/7/3 29/8/3
f 29/8/4 44/7/4 43/9/4 28/10/4
f 53/5/6 50/13/6 43/14/6 44/7/6
f 30/4/2 53/3/2 47/5/2 31/6/2
f 31/6/3 47/5/3 46/7/3 45/8/3
f 45/8/4 46/7/4 44/9/4 29/10/4
f 47/5/6 53/13/6 44/14/6 46/7/6
f 31/4/2 47/3/2 57/5/2 56/6/2
f 56/6/3 57/5/3 48/7/3 33/8/3
f 33/8/4 48/7/4 46/9/4 45/10/4
f 57/5/6 47/13/6 46/14/6 48/7/6
f 49/1/1 50/2/1 52/3/1 51/4/1
f 51/4/2 52/3/2 55/5/2 54/6/2
f 54/6/3 55/5/3 53/7/3 30/8/3
f 55/5/6 52/13/6 50/14/6 53/7/6
f 54/4/2 55/3/2 62/5/2 36/6/2
f 36/6/3 62/5/3 47/7/3 31/8/3
f 54/11/5 36/6/5 31/8/5 30/12/5
f 62/5/6 55/13/6 53/14/6 47/7/6
f 36/4/2 62/3/2 58/5/2 38/6/2
f 38/6/3 58/5/3 57/7/3 56/8/3
f 58/5/6 62/13/6 47/14/6 57/7/6
f 51/1/1 52/2/1 60/3/1 59/4/1
f 59/4/2 60/3/2 61/5/2 40/6/2
f 40/6/3 61/5/3 55/7/3 54/8/3
f 61/5/6 60/13/6 52/14/6 55/7/6
f 40/4/2 61/3/2 63/5/2 41/6/2
f 41/6/3 63/5/3 62/7/3 36/8/3
f 63/5/6 61/13/6 55/14/6 62/7/6
f 41/4/2 63/3/2 64/5/2 42/6/2
f 42/6/3 64/5/3 58/7/3 38/8/3
f 64/5/6 63/13/6 62/14/6 58/7/6
