# Blender 3.6.7
# www.blender.org
mtllib rockingChair1.mtl
o model_0
v -0.375000 0.062500 0.281250
v -0.375000 0.062500 0.343750
v -0.375000 0.125000 0.343750
v -0.375000 0.125000 0.281250
v -0.312500 0.062500 0.343750
v -0.312500 0.062500 0.281250
v -0.312500 0.125000 0.281250
v -0.312500 0.125000 0.343750
v -0.375000 0.375000 0.281250
v -0.375000 0.375000 0.343750
v -0.375000 0.437500 0.343750
v -0.375000 0.437500 0.281250
v -0.312500 0.375000 0.343750
v -0.312500 0.375000 0.281250
v -0.312500 0.437500 0.281250
v -0.312500 0.437500 0.343750
v -0.375000 0.000000 -0.281250
v -0.375000 0.000000 0.281250
v -0.375000 0.062500 -0.281250
v -0.312500 0.000000 0.281250
v -0.312500 0.000000 -0.281250
v -0.312500 0.062500 -0.281250
v -0.375000 0.437500 0.031250
v -0.375000 0.500000 0.281250
v -0.375000 0.500000 0.031250
v -0.312500 0.437500 0.031250
v -0.312500 0.500000 0.031250
v -0.312500 0.500000 0.281250
v -0.375000 0.062500 0.156250
v -0.375000 0.062500 0.218750
v -0.375000 0.187500 0.218750
v -0.375000 0.187500 0.156250
v -0.312500 0.062500 0.218750
v -0.312500 0.062500 0.156250
v -0.312500 0.187500 0.156250
v -0.312500 0.187500 0.218750
v -0.375000 0.187500 0.093750
v -0.375000 0.250000 0.156250
v -0.375000 0.250000 0.093750
v -0.312500 0.187500 0.093750
v -0.312500 0.250000 0.093750
v -0.312500 0.250000 0.156250
v -0.375000 0.250000 -0.031250
v -0.375000 0.312500 0.093750
v -0.375000 0.312500 -0.031250
v -0.375000 0.312500 0.031250
v -0.375000 0.375000 0.093750
v -0.375000 0.375000 0.031250
v -0.312500 0.312500 0.093750
v -0.312500 0.312500 0.031250
v -0.312500 0.375000 0.031250
v -0.312500 0.375000 0.093750
v -0.375000 0.375000 -0.281250
v -0.375000 0.437500 -0.281250
v -0.312500 0.375000 -0.281250
v -0.312500 0.437500 -0.281250
v -0.375000 0.187500 -0.093750
v -0.375000 0.187500 -0.031250
v -0.375000 0.250000 -0.093750
v -0.312500 0.187500 -0.031250
v -0.312500 0.187500 -0.093750
v -0.312500 0.250000 -0.093750
v -0.312500 0.250000 -0.031250
v -0.375000 0.312500 -0.093750
v -0.375000 0.375000 -0.031250
v -0.375000 0.375000 -0.093750
v -0.312500 0.312500 -0.031250
v -0.312500 0.312500 -0.093750
v -0.312500 0.375000 -0.093750
v -0.312500 0.375000 -0.031250
v -0.375000 0.125000 -0.156250
v -0.375000 0.125000 -0.093750
v -0.375000 0.187500 -0.156250
v -0.312500 0.125000 -0.093750
v -0.312500 0.125000 -0.156250
v -0.312500 0.187500 -0.156250
v -0.375000 0.250000 -0.156250
v -0.375000 0.312500 -0.156250
v -0.375000 0.062500 -0.218750
v -0.375000 0.062500 -0.156250
v -0.375000 0.125000 -0.218750
v -0.312500 0.062500 -0.156250
v -0.312500 0.062500 -0.218750
v -0.312500 0.125000 -0.218750
v -0.375000 0.312500 -0.218750
v -0.375000 0.375000 -0.156250
v -0.375000 0.375000 -0.218750
v -0.312500 0.312500 -0.156250
v -0.312500 0.312500 -0.218750
v -0.312500 0.375000 -0.218750
v -0.312500 0.375000 -0.156250
v -0.375000 0.062500 -0.343750
v -0.375000 0.125000 -0.281250
v -0.375000 0.125000 -0.343750
v -0.312500 0.062500 -0.343750
v -0.312500 0.125000 -0.343750
v -0.312500 0.125000 -0.281250
v -0.312500 0.250000 0.281250
v -0.312500 0.312500 0.281250
v -0.312500 0.250000 -0.281250
v -0.312500 0.250000 -0.156250
v -0.312500 0.312500 -0.281250
v -0.312500 0.312500 -0.343750
v -0.312500 0.937500 -0.281250
v -0.312500 0.937500 -0.343750
v -0.312500 1.000000 -0.281250
v -0.312500 1.000000 -0.343750
v -0.250000 0.937500 -0.281250
v -0.250000 0.937500 -0.343750
v -0.250000 1.000000 -0.343750
v -0.250000 1.000000 -0.281250
v -0.250000 0.250000 -0.343750
v -0.250000 0.250000 -0.281250
v -0.250000 0.312500 -0.281250
v -0.250000 0.312500 -0.343750
v 0.250000 0.250000 -0.281250
v 0.250000 0.250000 -0.343750
v 0.250000 0.312500 -0.343750
v 0.250000 0.312500 -0.281250
v 0.312500 0.250000 0.281250
v 0.312500 0.250000 0.093750
v 0.312500 0.312500 0.093750
v 0.312500 0.312500 0.281250
v 0.312500 0.250000 -0.031250
v 0.312500 0.250000 -0.093750
v 0.312500 0.312500 -0.093750
v 0.312500 0.312500 -0.031250
v 0.312500 0.250000 -0.156250
v 0.312500 0.250000 -0.281250
v 0.312500 0.312500 -0.281250
v 0.312500 0.312500 -0.156250
v 0.312500 0.312500 -0.343750
v 0.312500 0.937500 -0.343750
v 0.312500 0.937500 -0.281250
v 0.250000 0.937500 -0.343750
v 0.250000 0.937500 -0.281250
v 0.250000 1.000000 -0.281250
v 0.250000 1.000000 -0.343750
v 0.312500 1.000000 -0.343750
v 0.312500 1.000000 -0.281250
v 0.312500 0.062500 0.281250
v 0.312500 0.062500 0.343750
v 0.312500 0.125000 0.343750
v 0.312500 0.125000 0.281250
v 0.375000 0.062500 0.343750
v 0.375000 0.062500 0.281250
v 0.375000 0.125000 0.281250
v 0.375000 0.125000 0.343750
v 0.312500 0.375000 0.281250
v 0.312500 0.375000 0.343750
v 0.312500 0.437500 0.343750
v 0.312500 0.437500 0.281250
v 0.375000 0.375000 0.343750
v 0.375000 0.375000 0.281250
v 0.375000 0.437500 0.281250
v 0.375000 0.437500 0.343750
v 0.312500 0.000000 -0.281250
v 0.312500 0.000000 0.281250
v 0.312500 0.062500 -0.281250
v 0.375000 0.000000 0.281250
v 0.375000 0.000000 -0.281250
v 0.375000 0.062500 -0.281250
v 0.312500 0.437500 0.031250
v 0.312500 0.500000 0.281250
v 0.312500 0.500000 0.031250
v 0.375000 0.437500 0.031250
v 0.375000 0.500000 0.031250
v 0.375000 0.500000 0.281250
v 0.312500 0.062500 0.156250
v 0.312500 0.062500 0.218750
v 0.312500 0.187500 0.218750
v 0.312500 0.187500 0.156250
v 0.375000 0.062500 0.218750
v 0.375000 0.062500 0.156250
v 0.375000 0.187500 0.156250
v 0.375000 0.187500 0.218750
v 0.312500 0.187500 0.093750
v 0.312500 0.250000 0.156250
v 0.375000 0.187500 0.093750
v 0.375000 0.250000 0.093750
v 0.375000 0.250000 0.156250
v 0.375000 0.250000 -0.031250
v 0.375000 0.312500 -0.031250
v 0.375000 0.312500 0.093750
v 0.312500 0.312500 0.031250
v 0.312500 0.375000 0.093750
v 0.312500 0.375000 0.031250
v 0.375000 0.312500 0.031250
v 0.375000 0.375000 0.031250
v 0.375000 0.375000 0.093750
v 0.312500 0.375000 -0.281250
v 0.312500 0.437500 -0.281250
v 0.375000 0.375000 -0.281250
v 0.375000 0.437500 -0.281250
v 0.312500 0.187500 -0.093750
v 0.312500 0.187500 -0.031250
v 0.375000 0.187500 -0.031250
v 0.375000 0.187500 -0.093750
v 0.375000 0.250000 -0.093750
v 0.312500 0.375000 -0.031250
v 0.312500 0.375000 -0.093750
v 0.375000 0.312500 -0.093750
v 0.375000 0.375000 -0.093750
v 0.375000 0.375000 -0.031250
v 0.312500 0.125000 -0.156250
v 0.312500 0.125000 -0.093750
v 0.312500 0.187500 -0.156250
v 0.375000 0.125000 -0.093750
v 0.375000 0.125000 -0.156250
v 0.375000 0.187500 -0.156250
v 0.375000 0.250000 -0.156250
v 0.375000 0.312500 -0.156250
v 0.312500 0.062500 -0.218750
v 0.312500 0.062500 -0.156250
v 0.312500 0.125000 -0.218750
v 0.375000 0.062500 -0.156250
v 0.375000 0.062500 -0.218750
v 0.375000 0.125000 -0.218750
v 0.312500 0.312500 -0.218750
v 0.312500 0.375000 -0.156250
v 0.312500 0.375000 -0.218750
v 0.375000 0.312500 -0.218750
v 0.375000 0.375000 -0.218750
v 0.375000 0.375000 -0.156250
v 0.312500 0.062500 -0.343750
v 0.312500 0.125000 -0.281250
v 0.312500 0.125000 -0.343750
v 0.375000 0.062500 -0.343750
v 0.375000 0.125000 -0.343750
v 0.375000 0.125000 -0.281250
v -0.187500 0.250000 -0.343750
v -0.250000 0.875000 -0.343750
v -0.187500 0.875000 -0.343750
v -0.187500 0.312500 -0.281250
v -0.187500 0.875000 -0.281250
v -0.250000 0.875000 -0.281250
v 0.312500 0.875000 -0.281250
v 0.312500 0.875000 -0.343750
v 0.187500 0.250000 -0.343750
v -0.187500 0.812500 -0.343750
v 0.187500 0.812500 -0.343750
v 0.187500 0.312500 -0.281250
v 0.187500 0.812500 -0.281250
v -0.187500 0.812500 -0.281250
v 0.250000 0.812500 -0.281250
v 0.250000 0.875000 -0.281250
v 0.250000 0.812500 -0.343750
v 0.250000 0.875000 -0.343750
v -0.312500 0.250000 0.218750
v 0.312500 0.250000 0.218750
v 0.312500 0.312500 0.218750
v -0.312500 0.312500 0.218750
v -0.250000 0.250000 0.218750
v -0.250000 0.312500 0.218750
v -0.250000 0.250000 0.156250
v 0.250000 0.250000 0.156250
v 0.250000 0.250000 0.218750
v 0.250000 0.312500 0.218750
v 0.250000 0.312500 0.156250
v -0.250000 0.312500 0.156250
v -0.187500 0.250000 0.156250
v -0.187500 0.312500 0.156250
v 0.187500 0.250000 0.156250
v 0.187500 0.312500 0.156250
vn -1.0000 -0.0000 -0.0000
vn 1.0000 -0.0000 -0.0000
vn -0.0000 -0.0000 1.0000
vn -0.0000 -0.0000 -1.0000
vn -0.0000 -1.0000 -0.0000
vn -0.0000 1.0000 -0.0000
s 0
usemtl rockingChair.vox_Material_253
f 9//1 10//1 11//1 12//1
f 13//2 14//2 15//2 16//2
f 23//1 12//1 24//1 25//1
f 15//2 26//2 27//2 28//2
f 29//1 30//1 31//1 32//1
f 33//2 34//2 35//2 36//2
f 37//1 32//1 38//1 39//1
f 35//2 40//2 41//2 42//2
f 43//1 39//1 44//1 45//1
f 46//1 44//1 47//1 48//1
f 49//2 50//2 51//2 52//2
f 53//1 48//1 23//1 54//1
f 51//2 55//2 56//2 26//2
f 57//1 58//1 43//1 59//1
f 60//2 61//2 62//2 63//2
f 64//1 45//1 65//1 66//1
f 67//2 68//2 69//2 70//2
f 71//1 72//1 57//1 73//1
f 74//2 75//2 76//2 61//2
f 77//1 59//1 64//1 78//1
f 79//1 80//1 71//1 81//1
f 82//2 83//2 84//2 75//2
f 85//1 78//1 86//1 87//1
f 88//2 89//2 90//2 91//2
f 105//1 104//1 106//1 107//1
f 108//2 109//2 110//2 111//2
f 112//1 113//1 114//1 115//1
f 116//2 117//2 118//2 119//2
f 135//1 136//1 137//1 138//1
f 134//2 133//2 139//2 140//2
f 149//1 150//1 151//1 152//1
f 153//2 154//2 155//2 156//2
f 163//1 152//1 164//1 165//1
f 155//2 166//2 167//2 168//2
f 169//1 170//1 171//1 172//1
f 173//2 174//2 175//2 176//2
f 177//1 172//1 178//1 121//1
f 175//2 179//2 180//2 181//2
f 180//2 182//2 183//2 184//2
f 185//1 122//1 186//1 187//1
f 184//2 188//2 189//2 190//2
f 191//1 187//1 163//1 192//1
f 189//2 193//2 194//2 166//2
f 195//1 196//1 124//1 125//1
f 197//2 198//2 199//2 182//2
f 126//1 127//1 200//1 201//1
f 183//2 202//2 203//2 204//2
f 205//1 206//1 195//1 207//1
f 208//2 209//2 210//2 198//2
f 199//2 211//2 212//2 202//2
f 213//1 214//1 205//1 215//1
f 216//2 217//2 218//2 209//2
f 219//1 131//1 220//1 221//1
f 212//2 222//2 223//2 224//2
f 10//3 13//3 16//3 11//3
f 14//4 9//4 12//4 15//4
f 150//3 153//3 156//3 151//3
f 154//4 149//4 152//4 155//4
f 12//3 15//3 28//3 24//3
f 152//3 155//3 168//3 164//3
f 30//3 33//3 36//3 31//3
f 34//4 29//4 32//4 35//4
f 170//3 173//3 176//3 171//3
f 174//4 169//4 172//4 175//4
f 32//3 35//3 42//3 38//3
f 40//4 37//4 39//4 41//4
f 172//3 175//3 181//3 178//3
f 179//4 177//4 121//4 180//4
f 39//3 41//3 52//3 47//3
f 50//4 46//4 48//4 51//4
f 26//4 23//4 25//4 27//4
f 121//3 180//3 190//3 186//3
f 188//4 185//4 187//4 189//4
f 166//4 163//4 165//4 167//4
f 63//4 43//4 45//4 67//4
f 48//3 51//3 26//3 23//3
f 182//4 124//4 127//4 183//4
f 187//3 189//3 166//3 163//3
f 58//3 60//3 63//3 43//3
f 61//4 57//4 59//4 62//4
f 45//3 67//3 70//3 65//3
f 68//4 64//4 66//4 69//4
f 196//3 197//3 182//3 124//3
f 198//4 195//4 125//4 199//4
f 127//3 183//3 204//3 200//3
f 202//4 126//4 201//4 203//4
f 72//3 74//3 61//3 57//3
f 75//4 71//4 73//4 76//4
f 59//3 62//3 68//3 64//3
f 101//4 77//4 78//4 88//4
f 206//3 208//3 198//3 195//3
f 209//4 205//4 207//4 210//4
f 125//3 199//3 202//3 126//3
f 211//4 128//4 131//4 212//4
f 80//3 82//3 75//3 71//3
f 83//4 79//4 81//4 84//4
f 78//3 88//3 91//3 86//3
f 89//4 85//4 87//4 90//4
f 214//3 216//3 209//3 205//3
f 217//4 213//4 215//4 218//4
f 131//3 212//3 224//3 220//3
f 222//4 219//4 221//4 223//4
f 55//4 53//4 54//4 56//4
f 193//4 191//4 192//4 194//4
f 104//3 108//3 111//3 106//3
f 109//4 105//4 107//4 110//4
f 231//4 112//4 232//4 233//4
f 114//3 234//3 235//3 236//3
f 244//3 245//3 246//3 235//3
f 247//4 240//4 233//4 248//4
f 117//4 239//4 241//4 247//4
f 242//3 119//3 245//3 243//3
f 136//3 134//3 140//3 137//3
f 133//4 135//4 138//4 139//4
f 71//6 75//6 84//6 81//6
f 205//6 209//6 218//6 215//6
f 31//6 36//6 35//6 32//6
f 71//5 75//5 74//5 72//5
f 57//6 61//6 76//6 73//6
f 171//6 176//6 175//6 172//6
f 205//5 209//5 208//5 206//5
f 195//6 198//6 210//6 207//6
f 37//5 40//5 35//5 32//5
f 38//6 42//6 41//6 39//6
f 57//5 61//5 60//5 58//5
f 43//6 63//6 62//6 59//6
f 177//5 179//5 175//5 172//5
f 178//6 181//6 180//6 121//6
f 195//5 198//5 197//5 196//5
f 124//6 182//6 199//6 125//6
f 43//5 63//5 41//5 39//5
f 46//6 50//6 67//6 45//6
f 77//5 101//5 62//5 59//5
f 64//6 68//6 88//6 78//6
f 255//5 256//5 257//5 253//5
f 254//6 258//6 259//6 260//6
f 112//5 231//5 261//5 255//5
f 260//6 262//6 234//6 114//6
f 239//5 117//5 256//5 263//5
f 264//6 259//6 119//6 242//6
f 124//5 182//5 180//5 121//5
f 185//6 188//6 183//6 127//6
f 128//5 211//5 199//5 125//5
f 126//6 202//6 212//6 131//6
f 47//6 52//6 51//6 48//6
f 64//5 68//5 67//5 45//5
f 85//5 89//5 88//5 78//5
f 186//6 190//6 189//6 187//6
f 126//5 202//5 183//5 127//5
f 219//5 222//5 212//5 131//5
f 9//5 14//5 13//5 10//5
f 11//6 16//6 15//6 12//6
f 65//5 70//5 51//5 48//5
f 23//6 26//6 56//6 54//6
f 86//5 91//5 69//5 66//5
f 53//5 55//5 90//5 87//5
f 149//5 154//5 153//5 150//5
f 151//6 156//6 155//6 152//6
f 200//5 204//5 189//5 187//5
f 163//6 166//6 194//6 192//6
f 220//5 224//5 203//5 201//5
f 191//5 193//5 223//5 221//5
f 23//5 26//5 15//5 12//5
f 24//6 28//6 27//6 25//6
f 163//5 166//5 155//5 152//5
f 164//6 168//6 167//6 165//6
f 106//6 111//6 110//6 107//6
f 137//6 140//6 139//6 138//6
usemtl rockingChair.vox_Material_254
f 1//1 2//1 3//1 4//1
f 5//2 6//2 7//2 8//2
f 17//1 18//1 1//1 19//1
f 20//2 21//2 22//2 6//2
f 92//1 19//1 93//1 94//1
f 22//2 95//2 96//2 97//2
f 41//1 98//1 99//1 49//1
f 62//1 63//1 67//1 68//1
f 100//1 101//1 88//1 102//1
f 103//1 102//1 104//1 105//1
f 120//2 121//2 122//2 123//2
f 124//2 125//2 126//2 127//2
f 128//2 129//2 130//2 131//2
f 130//2 132//2 133//2 134//2
f 141//1 142//1 143//1 144//1
f 145//2 146//2 147//2 148//2
f 157//1 158//1 141//1 159//1
f 160//2 161//2 162//2 146//2
f 225//1 159//1 226//1 227//1
f 162//2 228//2 229//2 230//2
f 2//3 5//3 8//3 3//3
f 6//4 1//4 4//4 7//4
f 142//3 145//3 148//3 143//3
f 146//4 141//4 144//4 147//4
f 18//3 20//3 6//3 1//3
f 98//3 120//3 123//3 99//3
f 158//3 160//3 146//3 141//3
f 21//4 17//4 19//4 22//4
f 113//4 100//4 102//4 114//4
f 129//4 116//4 119//4 130//4
f 161//4 157//4 159//4 162//4
f 19//3 22//3 97//3 93//3
f 95//4 92//4 94//4 96//4
f 102//3 114//3 108//3 104//3
f 115//4 103//4 105//4 109//4
f 236//3 237//3 134//3 108//3
f 238//4 232//4 109//4 133//4
f 119//3 130//3 237//3 246//3
f 132//4 118//4 248//4 238//4
f 159//3 162//3 230//3 226//3
f 228//4 225//4 227//4 229//4
f 17//5 21//5 20//5 18//5
f 1//6 6//6 33//6 30//6
f 29//6 34//6 82//6 80//6
f 79//6 83//6 22//6 19//6
f 157//5 161//5 160//5 158//5
f 141//6 146//6 173//6 170//6
f 169//6 174//6 216//6 214//6
f 213//6 217//6 162//6 159//6
f 1//5 6//5 5//5 2//5
f 3//6 8//6 7//6 4//6
f 92//5 95//5 22//5 19//5
f 93//6 97//6 96//6 94//6
f 141//5 146//5 145//5 142//5
f 143//6 148//6 147//6 144//6
f 225//5 228//5 162//5 159//5
f 226//6 230//6 229//6 227//6
f 249//5 250//5 120//5 98//5
f 99//6 123//6 251//6 252//6
f 100//5 113//5 253//5 249//5
f 252//6 254//6 114//6 102//6
f 116//5 129//5 250//5 257//5
f 258//6 251//6 130//6 119//6
f 103//5 115//5 114//5 102//5
f 118//5 132//5 130//5 119//5
f 108//6 136//6 135//6 109//6
usemtl rockingChair.vox_Material_255
f 239//4 231//4 240//4 241//4
f 234//3 242//3 243//3 244//3
f 231//5 239//5 263//5 261//5
f 262//6 264//6 242//6 234//6
