# Blender 3.6.7
# www.blender.org
mtllib chateauWindows.mtl
o model_0
v -23.000000 85.500000 25.000000
v -23.000000 85.500000 25.500000
v -23.000000 87.500000 25.500000
v -23.000000 87.500000 25.000000
v -23.000000 88.000000 25.000000
v -23.000000 88.000000 25.500000
v -23.000000 90.000000 25.500000
v -23.000000 90.000000 25.000000
v -22.000000 85.500000 25.500000
v -22.000000 85.500000 25.000000
v -22.000000 87.500000 25.000000
v -22.000000 87.500000 25.500000
v -22.000000 88.000000 25.500000
v -22.000000 88.000000 25.000000
v -22.000000 90.000000 25.000000
v -22.000000 90.000000 25.500000
v -21.500000 85.500000 25.000000
v -21.500000 85.500000 25.500000
v -21.500000 87.500000 25.500000
v -21.500000 87.500000 25.000000
v -21.500000 88.000000 25.000000
v -21.500000 88.000000 25.500000
v -21.500000 90.000000 25.500000
v -21.500000 90.000000 25.000000
v -20.500000 85.500000 25.500000
v -20.500000 85.500000 25.000000
v -20.500000 87.500000 25.000000
v -20.500000 87.500000 25.500000
v -20.500000 88.000000 25.500000
v -20.500000 88.000000 25.000000
v -20.500000 90.000000 25.000000
v -20.500000 90.000000 25.500000
v -19.000000 85.500000 25.000000
v -19.000000 85.500000 25.500000
v -19.000000 87.500000 25.500000
v -19.000000 87.500000 25.000000
v -19.000000 88.000000 25.000000
v -19.000000 88.000000 25.500000
v -19.000000 90.000000 25.500000
v -19.000000 90.000000 25.000000
v -18.000000 85.500000 25.500000
v -18.000000 85.500000 25.000000
v -18.000000 87.500000 25.000000
v -18.000000 87.500000 25.500000
v -18.000000 88.000000 25.500000
v -18.000000 88.000000 25.000000
v -18.000000 90.000000 25.000000
v -18.000000 90.000000 25.500000
v -17.500000 85.500000 25.000000
v -17.500000 85.500000 25.500000
v -17.500000 87.500000 25.500000
v -17.500000 87.500000 25.000000
v -17.500000 88.000000 25.000000
v -17.500000 88.000000 25.500000
v -17.500000 90.000000 25.500000
v -17.500000 90.000000 25.000000
v -16.500000 85.500000 25.500000
v -16.500000 85.500000 25.000000
v -16.500000 87.500000 25.000000
v -16.500000 87.500000 25.500000
v -16.500000 88.000000 25.500000
v -16.500000 88.000000 25.000000
v -16.500000 90.000000 25.000000
v -16.500000 90.000000 25.500000
v -11.500000 85.500000 25.000000
v -11.500000 85.500000 25.500000
v -11.500000 87.500000 25.500000
v -11.500000 87.500000 25.000000
v -11.500000 88.000000 25.000000
v -11.500000 88.000000 25.500000
v -11.500000 90.000000 25.500000
v -11.500000 90.000000 25.000000
v -10.500000 85.500000 25.500000
v -10.500000 85.500000 25.000000
v -10.500000 87.500000 25.000000
v -10.500000 87.500000 25.500000
v -10.500000 88.000000 25.500000
v -10.500000 88.000000 25.000000
v -10.500000 90.000000 25.000000
v -10.500000 90.000000 25.500000
v -10.000000 85.500000 25.000000
v -10.000000 85.500000 25.500000
v -10.000000 87.500000 25.500000
v -10.000000 87.500000 25.000000
v -10.000000 88.000000 25.000000
v -10.000000 88.000000 25.500000
v -10.000000 90.000000 25.500000
v -10.000000 90.000000 25.000000
v -9.000000 85.500000 25.500000
v -9.000000 85.500000 25.000000
v -9.000000 87.500000 25.000000
v -9.000000 87.500000 25.500000
v -9.000000 88.000000 25.500000
v -9.000000 88.000000 25.000000
v -9.000000 90.000000 25.000000
v -9.000000 90.000000 25.500000
v -7.500000 85.500000 25.000000
v -7.500000 85.500000 25.500000
v -7.500000 87.500000 25.500000
v -7.500000 87.500000 25.000000
v -7.500000 88.000000 25.000000
v -7.500000 88.000000 25.500000
v -7.500000 90.000000 25.500000
v -7.500000 90.000000 25.000000
v -6.500000 85.500000 25.500000
v -6.500000 85.500000 25.000000
v -6.500000 87.500000 25.000000
v -6.500000 87.500000 25.500000
v -6.500000 88.000000 25.500000
v -6.500000 88.000000 25.000000
v -6.500000 90.000000 25.000000
v -6.500000 90.000000 25.500000
v -6.000000 85.500000 25.000000
v -6.000000 85.500000 25.500000
v -6.000000 87.500000 25.500000
v -6.000000 87.500000 25.000000
v -6.000000 88.000000 25.000000
v -6.000000 88.000000 25.500000
v -6.000000 90.000000 25.500000
v -6.000000 90.000000 25.000000
v -5.000000 85.500000 25.500000
v -5.000000 85.500000 25.000000
v -5.000000 87.500000 25.000000
v -5.000000 87.500000 25.500000
v -5.000000 88.000000 25.500000
v -5.000000 88.000000 25.000000
v -5.000000 90.000000 25.000000
v -5.000000 90.000000 25.500000
v 0.000000 85.500000 23.500000
v 0.000000 85.500000 24.000000
v 0.000000 87.000000 24.000000
v 0.000000 87.000000 23.500000
v 0.500000 85.500000 24.000000
v 0.500000 85.500000 23.500000
v 0.500000 87.000000 23.500000
v 0.500000 87.000000 24.000000
v 0.000000 87.500000 23.500000
v 0.000000 87.500000 24.000000
v 0.000000 88.500000 24.000000
v 0.000000 88.500000 23.500000
v 0.500000 87.500000 24.000000
v 0.500000 87.500000 23.500000
v 0.500000 88.500000 23.500000
v 0.500000 88.500000 24.000000
v 1.000000 85.500000 24.500000
v 1.000000 85.500000 25.000000
v 1.000000 87.000000 25.000000
v 1.000000 87.000000 24.500000
v 1.500000 85.500000 25.000000
v 1.500000 85.500000 24.500000
v 1.500000 87.000000 24.500000
v 1.500000 87.000000 25.000000
v 1.000000 87.500000 24.500000
v 1.000000 87.500000 25.000000
v 1.000000 88.500000 25.000000
v 1.000000 88.500000 24.500000
v 1.500000 87.500000 25.000000
v 1.500000 87.500000 24.500000
v 1.500000 88.500000 24.500000
v 1.500000 88.500000 25.000000
v 5.500000 85.500000 25.000000
v 5.500000 85.500000 25.500000
v 5.500000 87.500000 25.500000
v 5.500000 87.500000 25.000000
v 5.500000 88.000000 25.000000
v 5.500000 88.000000 25.500000
v 5.500000 90.000000 25.500000
v 5.500000 90.000000 25.000000
v 6.500000 85.500000 25.500000
v 6.500000 85.500000 25.000000
v 6.500000 87.500000 25.000000
v 6.500000 87.500000 25.500000
v 6.500000 88.000000 25.500000
v 6.500000 88.000000 25.000000
v 6.500000 90.000000 25.000000
v 6.500000 90.000000 25.500000
v 7.000000 85.500000 25.000000
v 7.000000 85.500000 25.500000
v 7.000000 87.500000 25.500000
v 7.000000 87.500000 25.000000
v 7.000000 88.000000 25.000000
v 7.000000 88.000000 25.500000
v 7.000000 90.000000 25.500000
v 7.000000 90.000000 25.000000
v 8.000000 85.500000 25.500000
v 8.000000 85.500000 25.000000
v 8.000000 87.500000 25.000000
v 8.000000 87.500000 25.500000
v 8.000000 88.000000 25.500000
v 8.000000 88.000000 25.000000
v 8.000000 90.000000 25.000000
v 8.000000 90.000000 25.500000
v 9.500000 85.500000 25.000000
v 9.500000 85.500000 25.500000
v 9.500000 87.500000 25.500000
v 9.500000 87.500000 25.000000
v 9.500000 88.000000 25.000000
v 9.500000 88.000000 25.500000
v 9.500000 90.000000 25.500000
v 9.500000 90.000000 25.000000
v 10.500000 85.500000 25.500000
v 10.500000 85.500000 25.000000
v 10.500000 87.500000 25.000000
v 10.500000 87.500000 25.500000
v 10.500000 88.000000 25.500000
v 10.500000 88.000000 25.000000
v 10.500000 90.000000 25.000000
v 10.500000 90.000000 25.500000
v 11.000000 85.500000 25.000000
v 11.000000 85.500000 25.500000
v 11.000000 87.500000 25.500000
v 11.000000 87.500000 25.000000
v 11.000000 88.000000 25.000000
v 11.000000 88.000000 25.500000
v 11.000000 90.000000 25.500000
v 11.000000 90.000000 25.000000
v 12.000000 85.500000 25.500000
v 12.000000 85.500000 25.000000
v 12.000000 87.500000 25.000000
v 12.000000 87.500000 25.500000
v 12.000000 88.000000 25.500000
v 12.000000 88.000000 25.000000
v 12.000000 90.000000 25.000000
v 12.000000 90.000000 25.500000
v 17.000000 85.500000 25.000000
v 17.000000 85.500000 25.500000
v 17.000000 87.500000 25.500000
v 17.000000 87.500000 25.000000
v 17.000000 88.000000 25.000000
v 17.000000 88.000000 25.500000
v 17.000000 90.000000 25.500000
v 17.000000 90.000000 25.000000
v 18.000000 85.500000 25.500000
v 18.000000 85.500000 25.000000
v 18.000000 87.500000 25.000000
v 18.000000 87.500000 25.500000
v 18.000000 88.000000 25.500000
v 18.000000 88.000000 25.000000
v 18.000000 90.000000 25.000000
v 18.000000 90.000000 25.500000
v 18.500000 85.500000 25.000000
v 18.500000 85.500000 25.500000
v 18.500000 87.500000 25.500000
v 18.500000 87.500000 25.000000
v 18.500000 88.000000 25.000000
v 18.500000 88.000000 25.500000
v 18.500000 90.000000 25.500000
v 18.500000 90.000000 25.000000
v 19.500000 85.500000 25.500000
v 19.500000 85.500000 25.000000
v 19.500000 87.500000 25.000000
v 19.500000 87.500000 25.500000
v 19.500000 88.000000 25.500000
v 19.500000 88.000000 25.000000
v 19.500000 90.000000 25.000000
v 19.500000 90.000000 25.500000
v 21.000000 85.500000 25.000000
v 21.000000 85.500000 25.500000
v 21.000000 87.500000 25.500000
v 21.000000 87.500000 25.000000
v 21.000000 88.000000 25.000000
v 21.000000 88.000000 25.500000
v 21.000000 90.000000 25.500000
v 21.000000 90.000000 25.000000
v 22.000000 85.500000 25.500000
v 22.000000 85.500000 25.000000
v 22.000000 87.500000 25.000000
v 22.000000 87.500000 25.500000
v 22.000000 88.000000 25.500000
v 22.000000 88.000000 25.000000
v 22.000000 90.000000 25.000000
v 22.000000 90.000000 25.500000
v 22.500000 85.500000 25.000000
v 22.500000 85.500000 25.500000
v 22.500000 87.500000 25.500000
v 22.500000 87.500000 25.000000
v 22.500000 88.000000 25.000000
v 22.500000 88.000000 25.500000
v 22.500000 90.000000 25.500000
v 22.500000 90.000000 25.000000
v 23.500000 85.500000 25.500000
v 23.500000 85.500000 25.000000
v 23.500000 87.500000 25.000000
v 23.500000 87.500000 25.500000
v 23.500000 88.000000 25.500000
v 23.500000 88.000000 25.000000
v 23.500000 90.000000 25.000000
v 23.500000 90.000000 25.500000
vn -1.0000 -0.0000 -0.0000
vn 1.0000 -0.0000 -0.0000
vn -0.0000 -0.0000 1.0000
vn -0.0000 -0.0000 -1.0000
vn -0.0000 -1.0000 -0.0000
vn -0.0000 1.0000 -0.0000
s 0
usemtl EXP_Chateau-0.vox_Material_15
f 1//1 2//1 3//1 4//1
f 5//1 6//1 7//1 8//1
f 9//2 10//2 11//2 12//2
f 13//2 14//2 15//2 16//2
f 17//1 18//1 19//1 20//1
f 21//1 22//1 23//1 24//1
f 25//2 26//2 27//2 28//2
f 29//2 30//2 31//2 32//2
f 33//1 34//1 35//1 36//1
f 37//1 38//1 39//1 40//1
f 41//2 42//2 43//2 44//2
f 45//2 46//2 47//2 48//2
f 49//1 50//1 51//1 52//1
f 53//1 54//1 55//1 56//1
f 57//2 58//2 59//2 60//2
f 61//2 62//2 63//2 64//2
f 65//1 66//1 67//1 68//1
f 69//1 70//1 71//1 72//1
f 73//2 74//2 75//2 76//2
f 77//2 78//2 79//2 80//2
f 81//1 82//1 83//1 84//1
f 85//1 86//1 87//1 88//1
f 89//2 90//2 91//2 92//2
f 93//2 94//2 95//2 96//2
f 97//1 98//1 99//1 100//1
f 101//1 102//1 103//1 104//1
f 105//2 106//2 107//2 108//2
f 109//2 110//2 111//2 112//2
f 113//1 114//1 115//1 116//1
f 117//1 118//1 119//1 120//1
f 121//2 122//2 123//2 124//2
f 125//2 126//2 127//2 128//2
f 129//1 130//1 131//1 132//1
f 133//2 134//2 135//2 136//2
f 137//1 138//1 139//1 140//1
f 141//2 142//2 143//2 144//2
f 145//1 146//1 147//1 148//1
f 149//2 150//2 151//2 152//2
f 153//1 154//1 155//1 156//1
f 157//2 158//2 159//2 160//2
f 161//1 162//1 163//1 164//1
f 165//1 166//1 167//1 168//1
f 169//2 170//2 171//2 172//2
f 173//2 174//2 175//2 176//2
f 177//1 178//1 179//1 180//1
f 181//1 182//1 183//1 184//1
f 185//2 186//2 187//2 188//2
f 189//2 190//2 191//2 192//2
f 193//1 194//1 195//1 196//1
f 197//1 198//1 199//1 200//1
f 201//2 202//2 203//2 204//2
f 205//2 206//2 207//2 208//2
f 209//1 210//1 211//1 212//1
f 213//1 214//1 215//1 216//1
f 217//2 218//2 219//2 220//2
f 221//2 222//2 223//2 224//2
f 225//1 226//1 227//1 228//1
f 229//1 230//1 231//1 232//1
f 233//2 234//2 235//2 236//2
f 237//2 238//2 239//2 240//2
f 241//1 242//1 243//1 244//1
f 245//1 246//1 247//1 248//1
f 249//2 250//2 251//2 252//2
f 253//2 254//2 255//2 256//2
f 257//1 258//1 259//1 260//1
f 261//1 262//1 263//1 264//1
f 265//2 266//2 267//2 268//2
f 269//2 270//2 271//2 272//2
f 273//1 274//1 275//1 276//1
f 277//1 278//1 279//1 280//1
f 281//2 282//2 283//2 284//2
f 285//2 286//2 287//2 288//2
f 2//3 9//3 12//3 3//3
f 10//4 1//4 4//4 11//4
f 6//3 13//3 16//3 7//3
f 14//4 5//4 8//4 15//4
f 18//3 25//3 28//3 19//3
f 26//4 17//4 20//4 27//4
f 22//3 29//3 32//3 23//3
f 30//4 21//4 24//4 31//4
f 34//3 41//3 44//3 35//3
f 42//4 33//4 36//4 43//4
f 38//3 45//3 48//3 39//3
f 46//4 37//4 40//4 47//4
f 50//3 57//3 60//3 51//3
f 58//4 49//4 52//4 59//4
f 54//3 61//3 64//3 55//3
f 62//4 53//4 56//4 63//4
f 66//3 73//3 76//3 67//3
f 74//4 65//4 68//4 75//4
f 70//3 77//3 80//3 71//3
f 78//4 69//4 72//4 79//4
f 82//3 89//3 92//3 83//3
f 90//4 81//4 84//4 91//4
f 86//3 93//3 96//3 87//3
f 94//4 85//4 88//4 95//4
f 98//3 105//3 108//3 99//3
f 106//4 97//4 100//4 107//4
f 102//3 109//3 112//3 103//3
f 110//4 101//4 104//4 111//4
f 114//3 121//3 124//3 115//3
f 122//4 113//4 116//4 123//4
f 118//3 125//3 128//3 119//3
f 126//4 117//4 120//4 127//4
f 162//3 169//3 172//3 163//3
f 170//4 161//4 164//4 171//4
f 166//3 173//3 176//3 167//3
f 174//4 165//4 168//4 175//4
f 178//3 185//3 188//3 179//3
f 186//4 177//4 180//4 187//4
f 182//3 189//3 192//3 183//3
f 190//4 181//4 184//4 191//4
f 194//3 201//3 204//3 195//3
f 202//4 193//4 196//4 203//4
f 198//3 205//3 208//3 199//3
f 206//4 197//4 200//4 207//4
f 210//3 217//3 220//3 211//3
f 218//4 209//4 212//4 219//4
f 214//3 221//3 224//3 215//3
f 222//4 213//4 216//4 223//4
f 226//3 233//3 236//3 227//3
f 234//4 225//4 228//4 235//4
f 230//3 237//3 240//3 231//3
f 238//4 229//4 232//4 239//4
f 242//3 249//3 252//3 243//3
f 250//4 241//4 244//4 251//4
f 246//3 253//3 256//3 247//3
f 254//4 245//4 248//4 255//4
f 258//3 265//3 268//3 259//3
f 266//4 257//4 260//4 267//4
f 262//3 269//3 272//3 263//3
f 270//4 261//4 264//4 271//4
f 274//3 281//3 284//3 275//3
f 282//4 273//4 276//4 283//4
f 278//3 285//3 288//3 279//3
f 286//4 277//4 280//4 287//4
f 146//3 149//3 152//3 147//3
f 150//4 145//4 148//4 151//4
f 154//3 157//3 160//3 155//3
f 158//4 153//4 156//4 159//4
f 130//3 133//3 136//3 131//3
f 134//4 129//4 132//4 135//4
f 138//3 141//3 144//3 139//3
f 142//4 137//4 140//4 143//4
f 1//5 10//5 9//5 2//5
f 17//5 26//5 25//5 18//5
f 33//5 42//5 41//5 34//5
f 49//5 58//5 57//5 50//5
f 65//5 74//5 73//5 66//5
f 81//5 90//5 89//5 82//5
f 97//5 106//5 105//5 98//5
f 113//5 122//5 121//5 114//5
f 129//5 134//5 133//5 130//5
f 145//5 150//5 149//5 146//5
f 161//5 170//5 169//5 162//5
f 177//5 186//5 185//5 178//5
f 193//5 202//5 201//5 194//5
f 209//5 218//5 217//5 210//5
f 225//5 234//5 233//5 226//5
f 241//5 250//5 249//5 242//5
f 257//5 266//5 265//5 258//5
f 273//5 282//5 281//5 274//5
f 131//6 136//6 135//6 132//6
f 147//6 152//6 151//6 148//6
f 3//6 12//6 11//6 4//6
f 19//6 28//6 27//6 20//6
f 35//6 44//6 43//6 36//6
f 51//6 60//6 59//6 52//6
f 67//6 76//6 75//6 68//6
f 83//6 92//6 91//6 84//6
f 99//6 108//6 107//6 100//6
f 115//6 124//6 123//6 116//6
f 163//6 172//6 171//6 164//6
f 179//6 188//6 187//6 180//6
f 195//6 204//6 203//6 196//6
f 211//6 220//6 219//6 212//6
f 227//6 236//6 235//6 228//6
f 243//6 252//6 251//6 244//6
f 259//6 268//6 267//6 260//6
f 275//6 284//6 283//6 276//6
f 137//5 142//5 141//5 138//5
f 153//5 158//5 157//5 154//5
f 5//5 14//5 13//5 6//5
f 21//5 30//5 29//5 22//5
f 37//5 46//5 45//5 38//5
f 53//5 62//5 61//5 54//5
f 69//5 78//5 77//5 70//5
f 85//5 94//5 93//5 86//5
f 101//5 110//5 109//5 102//5
f 117//5 126//5 125//5 118//5
f 139//6 144//6 143//6 140//6
f 155//6 160//6 159//6 156//6
f 165//5 174//5 173//5 166//5
f 181//5 190//5 189//5 182//5
f 197//5 206//5 205//5 198//5
f 213//5 222//5 221//5 214//5
f 229//5 238//5 237//5 230//5
f 245//5 254//5 253//5 246//5
f 261//5 270//5 269//5 262//5
f 277//5 286//5 285//5 278//5
f 7//6 16//6 15//6 8//6
f 23//6 32//6 31//6 24//6
f 39//6 48//6 47//6 40//6
f 55//6 64//6 63//6 56//6
f 71//6 80//6 79//6 72//6
f 87//6 96//6 95//6 88//6
f 103//6 112//6 111//6 104//6
f 119//6 128//6 127//6 120//6
f 167//6 176//6 175//6 168//6
f 183//6 192//6 191//6 184//6
f 199//6 208//6 207//6 200//6
f 215//6 224//6 223//6 216//6
f 231//6 240//6 239//6 232//6
f 247//6 256//6 255//6 248//6
f 263//6 272//6 271//6 264//6
f 279//6 288//6 287//6 280//6
