# Blender 3.5.1
# www.blender.org
mtllib woodRockingChair1.mtl
o model_0
v -0.450000 0.100000 0.350000
v -0.450000 0.100000 0.550000
v -0.450000 0.200000 0.550000
v -0.450000 0.200000 0.350000
v -0.350000 0.100000 0.550000
v -0.350000 0.100000 0.350000
v -0.350000 0.200000 0.350000
v -0.350000 0.200000 0.550000
v -0.450000 0.500000 0.450000
v -0.450000 0.500000 0.550000
v -0.450000 0.600000 0.550000
v -0.450000 0.600000 0.450000
v -0.350000 0.500000 0.550000
v -0.350000 0.500000 0.450000
v -0.350000 0.600000 0.450000
v -0.350000 0.600000 0.550000
v -0.450000 0.600000 0.050000
v -0.450000 0.700000 0.450000
v -0.450000 0.700000 0.050000
v -0.350000 0.600000 0.050000
v -0.350000 0.700000 0.050000
v -0.350000 0.700000 0.450000
v -0.450000 0.000000 -0.350000
v -0.450000 0.000000 0.350000
v -0.450000 0.100000 -0.350000
v -0.350000 0.000000 0.350000
v -0.350000 0.000000 -0.350000
v -0.350000 0.100000 -0.350000
v -0.450000 0.100000 0.150000
v -0.450000 0.100000 0.250000
v -0.450000 0.200000 0.250000
v -0.450000 0.200000 0.150000
v -0.350000 0.100000 0.250000
v -0.350000 0.100000 0.150000
v -0.350000 0.200000 0.150000
v -0.350000 0.200000 0.250000
v -0.450000 0.200000 0.050000
v -0.450000 0.300000 0.150000
v -0.450000 0.300000 0.050000
v -0.350000 0.200000 0.050000
v -0.350000 0.300000 0.050000
v -0.350000 0.300000 0.150000
v -0.450000 0.300000 -0.050000
v -0.450000 0.400000 0.050000
v -0.450000 0.400000 -0.050000
v -0.350000 0.300000 -0.050000
v -0.350000 0.400000 -0.050000
v -0.350000 0.400000 0.050000
v -0.450000 0.500000 -0.350000
v -0.450000 0.500000 0.050000
v -0.450000 0.600000 -0.350000
v -0.350000 0.500000 0.050000
v -0.350000 0.500000 -0.350000
v -0.350000 0.600000 -0.350000
v -0.450000 0.200000 -0.150000
v -0.450000 0.200000 -0.050000
v -0.450000 0.300000 -0.150000
v -0.350000 0.200000 -0.050000
v -0.350000 0.200000 -0.150000
v -0.350000 0.300000 -0.150000
v -0.450000 0.400000 -0.150000
v -0.450000 0.500000 -0.050000
v -0.450000 0.500000 -0.150000
v -0.450000 0.100000 -0.250000
v -0.450000 0.100000 -0.150000
v -0.450000 0.200000 -0.250000
v -0.350000 0.100000 -0.150000
v -0.350000 0.100000 -0.250000
v -0.350000 0.200000 -0.250000
v -0.450000 0.100000 -0.550000
v -0.450000 0.200000 -0.350000
v -0.450000 0.200000 -0.550000
v -0.350000 0.100000 -0.550000
v -0.350000 0.200000 -0.550000
v -0.350000 0.200000 -0.350000
v -0.350000 0.400000 0.450000
v -0.350000 0.500000 -0.050000
v -0.350000 0.400000 -0.350000
v -0.350000 0.400000 -0.150000
v -0.350000 0.500000 -0.150000
v -0.350000 0.500000 -0.450000
v -0.350000 1.300000 -0.350000
v -0.350000 1.300000 -0.450000
v -0.350000 1.400000 -0.350000
v -0.350000 1.400000 -0.450000
v -0.250000 1.300000 -0.350000
v -0.250000 1.300000 -0.450000
v -0.250000 1.400000 -0.450000
v -0.250000 1.400000 -0.350000
v -0.250000 0.400000 -0.450000
v -0.250000 0.400000 -0.350000
v -0.250000 0.500000 -0.350000
v -0.250000 0.500000 -0.450000
v 0.250000 0.400000 -0.350000
v 0.250000 0.400000 -0.450000
v 0.250000 0.500000 -0.450000
v 0.250000 0.500000 -0.350000
v 0.350000 0.400000 0.450000
v 0.350000 0.400000 -0.050000
v 0.350000 0.500000 -0.050000
v 0.350000 0.500000 0.450000
v 0.350000 0.400000 -0.150000
v 0.350000 0.400000 -0.350000
v 0.350000 0.500000 -0.350000
v 0.350000 0.500000 -0.150000
v 0.350000 0.500000 -0.450000
v 0.350000 1.300000 -0.450000
v 0.350000 1.300000 -0.350000
v 0.250000 1.300000 -0.450000
v 0.250000 1.300000 -0.350000
v 0.250000 1.400000 -0.350000
v 0.250000 1.400000 -0.450000
v 0.350000 1.400000 -0.450000
v 0.350000 1.400000 -0.350000
v 0.350000 0.100000 0.350000
v 0.350000 0.100000 0.550000
v 0.350000 0.200000 0.550000
v 0.350000 0.200000 0.350000
v 0.450000 0.100000 0.550000
v 0.450000 0.100000 0.350000
v 0.450000 0.200000 0.350000
v 0.450000 0.200000 0.550000
v 0.350000 0.500000 0.550000
v 0.350000 0.600000 0.550000
v 0.350000 0.600000 0.450000
v 0.450000 0.500000 0.550000
v 0.450000 0.500000 0.450000
v 0.450000 0.600000 0.450000
v 0.450000 0.600000 0.550000
v 0.350000 0.600000 0.050000
v 0.350000 0.700000 0.450000
v 0.350000 0.700000 0.050000
v 0.450000 0.600000 0.050000
v 0.450000 0.700000 0.050000
v 0.450000 0.700000 0.450000
v 0.350000 0.000000 -0.350000
v 0.350000 0.000000 0.350000
v 0.350000 0.100000 -0.350000
v 0.450000 0.000000 0.350000
v 0.450000 0.000000 -0.350000
v 0.450000 0.100000 -0.350000
v 0.350000 0.100000 0.150000
v 0.350000 0.100000 0.250000
v 0.350000 0.200000 0.250000
v 0.350000 0.200000 0.150000
v 0.450000 0.100000 0.250000
v 0.450000 0.100000 0.150000
v 0.450000 0.200000 0.150000
v 0.450000 0.200000 0.250000
v 0.350000 0.200000 0.050000
v 0.350000 0.300000 0.150000
v 0.350000 0.300000 0.050000
v 0.450000 0.200000 0.050000
v 0.450000 0.300000 0.050000
v 0.450000 0.300000 0.150000
v 0.350000 0.300000 -0.050000
v 0.350000 0.400000 0.050000
v 0.450000 0.300000 -0.050000
v 0.450000 0.400000 -0.050000
v 0.450000 0.400000 0.050000
v 0.350000 0.500000 0.050000
v 0.350000 0.600000 -0.350000
v 0.450000 0.500000 0.050000
v 0.450000 0.500000 -0.350000
v 0.450000 0.600000 -0.350000
v 0.350000 0.200000 -0.150000
v 0.350000 0.200000 -0.050000
v 0.350000 0.300000 -0.150000
v 0.450000 0.200000 -0.050000
v 0.450000 0.200000 -0.150000
v 0.450000 0.300000 -0.150000
v 0.450000 0.400000 -0.150000
v 0.450000 0.500000 -0.150000
v 0.450000 0.500000 -0.050000
v 0.350000 0.100000 -0.250000
v 0.350000 0.100000 -0.150000
v 0.350000 0.200000 -0.250000
v 0.450000 0.100000 -0.150000
v 0.450000 0.100000 -0.250000
v 0.450000 0.200000 -0.250000
v 0.350000 0.100000 -0.550000
v 0.350000 0.200000 -0.350000
v 0.350000 0.200000 -0.550000
v 0.450000 0.100000 -0.550000
v 0.450000 0.200000 -0.550000
v 0.450000 0.200000 -0.350000
v -0.150000 0.400000 -0.450000
v -0.250000 1.200000 -0.450000
v -0.150000 1.200000 -0.450000
v -0.150000 0.500000 -0.350000
v -0.150000 1.200000 -0.350000
v -0.250000 1.200000 -0.350000
v 0.350000 1.200000 -0.350000
v 0.350000 1.200000 -0.450000
v 0.150000 0.400000 -0.450000
v -0.150000 1.100000 -0.450000
v 0.150000 1.100000 -0.450000
v 0.150000 0.500000 -0.350000
v 0.150000 1.100000 -0.350000
v -0.150000 1.100000 -0.350000
v 0.250000 1.100000 -0.350000
v 0.250000 1.200000 -0.350000
v 0.250000 1.100000 -0.450000
v 0.250000 1.200000 -0.450000
v -0.350000 0.400000 0.350000
v 0.350000 0.400000 0.350000
v 0.350000 0.500000 0.350000
v -0.350000 0.500000 0.350000
v -0.250000 0.400000 0.350000
v -0.250000 0.500000 0.350000
v -0.250000 0.400000 0.250000
v 0.250000 0.400000 0.250000
v 0.250000 0.400000 0.350000
v 0.250000 0.500000 0.350000
v 0.250000 0.500000 0.250000
v -0.250000 0.500000 0.250000
v -0.150000 0.400000 0.250000
v -0.150000 0.500000 0.250000
v 0.150000 0.400000 0.250000
v 0.150000 0.500000 0.250000
vn -1.0000 -0.0000 -0.0000
vn 1.0000 -0.0000 -0.0000
vn -0.0000 -0.0000 1.0000
vn -0.0000 -0.0000 -1.0000
vn -0.0000 -1.0000 -0.0000
vn -0.0000 1.0000 -0.0000
s 0
usemtl rockingChair.vox_Material_253
f 9//1 10//1 11//1 12//1
f 13//2 14//2 15//2 16//2
f 17//1 12//1 18//1 19//1
f 15//2 20//2 21//2 22//2
f 29//1 30//1 31//1 32//1
f 33//2 34//2 35//2 36//2
f 37//1 32//1 38//1 39//1
f 35//2 40//2 41//2 42//2
f 43//1 39//1 44//1 45//1
f 41//2 46//2 47//2 48//2
f 49//1 50//1 17//1 51//1
f 52//2 53//2 54//2 20//2
f 55//1 56//1 43//1 57//1
f 58//2 59//2 60//2 46//2
f 61//1 45//1 62//1 63//1
f 64//1 65//1 55//1 66//1
f 67//2 68//2 69//2 59//2
f 83//1 82//1 84//1 85//1
f 86//2 87//2 88//2 89//2
f 90//1 91//1 92//1 93//1
f 94//2 95//2 96//2 97//2
f 109//1 110//1 111//1 112//1
f 108//2 107//2 113//2 114//2
f 101//1 123//1 124//1 125//1
f 126//2 127//2 128//2 129//2
f 130//1 125//1 131//1 132//1
f 128//2 133//2 134//2 135//2
f 142//1 143//1 144//1 145//1
f 146//2 147//2 148//2 149//2
f 150//1 145//1 151//1 152//1
f 148//2 153//2 154//2 155//2
f 156//1 152//1 157//1 99//1
f 154//2 158//2 159//2 160//2
f 104//1 161//1 130//1 162//1
f 163//2 164//2 165//2 133//2
f 166//1 167//1 156//1 168//1
f 169//2 170//2 171//2 158//2
f 159//2 172//2 173//2 174//2
f 175//1 176//1 166//1 177//1
f 178//2 179//2 180//2 170//2
f 10//3 13//3 16//3 11//3
f 14//4 9//4 12//4 15//4
f 123//3 126//3 129//3 124//3
f 127//4 101//4 125//4 128//4
f 12//3 15//3 22//3 18//3
f 125//3 128//3 135//3 131//3
f 30//3 33//3 36//3 31//3
f 34//4 29//4 32//4 35//4
f 143//3 146//3 149//3 144//3
f 147//4 142//4 145//4 148//4
f 32//3 35//3 42//3 38//3
f 40//4 37//4 39//4 41//4
f 20//4 17//4 19//4 21//4
f 145//3 148//3 155//3 151//3
f 153//4 150//4 152//4 154//4
f 133//4 130//4 132//4 134//4
f 39//3 41//3 48//3 44//3
f 46//4 43//4 45//4 47//4
f 50//3 52//3 20//3 17//3
f 152//3 154//3 160//3 157//3
f 158//4 156//4 99//4 159//4
f 161//3 163//3 133//3 130//3
f 56//3 58//3 46//3 43//3
f 59//4 55//4 57//4 60//4
f 45//3 47//3 77//3 62//3
f 79//4 61//4 63//4 80//4
f 167//3 169//3 158//3 156//3
f 170//4 166//4 168//4 171//4
f 99//3 159//3 174//3 100//3
f 172//4 102//4 105//4 173//4
f 65//3 67//3 59//3 55//3
f 68//4 64//4 66//4 69//4
f 176//3 178//3 170//3 166//3
f 179//4 175//4 177//4 180//4
f 53//4 49//4 51//4 54//4
f 164//4 104//4 162//4 165//4
f 82//3 86//3 89//3 84//3
f 87//4 83//4 85//4 88//4
f 187//4 90//4 188//4 189//4
f 92//3 190//3 191//3 192//3
f 200//3 201//3 202//3 191//3
f 203//4 196//4 189//4 204//4
f 95//4 195//4 197//4 203//4
f 198//3 97//3 201//3 199//3
f 110//3 108//3 114//3 111//3
f 107//4 109//4 112//4 113//4
f 31//6 36//6 35//6 32//6
f 55//6 59//6 69//6 66//6
f 144//6 149//6 148//6 145//6
f 166//6 170//6 180//6 177//6
f 37//5 40//5 35//5 32//5
f 38//6 42//6 41//6 39//6
f 55//5 59//5 58//5 56//5
f 43//6 46//6 60//6 57//6
f 150//5 153//5 148//5 145//5
f 151//6 155//6 154//6 152//6
f 166//5 170//5 169//5 167//5
f 156//6 158//6 171//6 168//6
f 43//5 46//5 41//5 39//5
f 44//6 48//6 47//6 45//6
f 156//5 158//5 154//5 152//5
f 157//6 160//6 159//6 99//6
f 61//5 79//5 47//5 45//5
f 211//5 212//5 213//5 209//5
f 210//6 214//6 215//6 216//6
f 90//5 187//5 217//5 211//5
f 216//6 218//6 190//6 92//6
f 195//5 95//5 212//5 219//5
f 220//6 215//6 97//6 198//6
f 102//5 172//5 159//5 99//5
f 9//5 14//5 13//5 10//5
f 11//6 16//6 15//6 12//6
f 62//5 77//5 52//5 50//5
f 17//6 20//6 54//6 51//6
f 49//5 53//5 80//5 63//5
f 101//5 127//5 126//5 123//5
f 124//6 129//6 128//6 125//6
f 100//5 174//5 163//5 161//5
f 130//6 133//6 165//6 162//6
f 104//5 164//5 173//5 105//5
f 17//5 20//5 15//5 12//5
f 18//6 22//6 21//6 19//6
f 130//5 133//5 128//5 125//5
f 131//6 135//6 134//6 132//6
f 84//6 89//6 88//6 85//6
f 111//6 114//6 113//6 112//6
usemtl rockingChair.vox_Material_254
f 1//1 2//1 3//1 4//1
f 5//2 6//2 7//2 8//2
f 23//1 24//1 1//1 25//1
f 26//2 27//2 28//2 6//2
f 70//1 25//1 71//1 72//1
f 28//2 73//2 74//2 75//2
f 47//1 76//1 14//1 77//1
f 78//1 79//1 80//1 53//1
f 81//1 53//1 82//1 83//1
f 98//2 99//2 100//2 101//2
f 102//2 103//2 104//2 105//2
f 104//2 106//2 107//2 108//2
f 115//1 116//1 117//1 118//1
f 119//2 120//2 121//2 122//2
f 136//1 137//1 115//1 138//1
f 139//2 140//2 141//2 120//2
f 181//1 138//1 182//1 183//1
f 141//2 184//2 185//2 186//2
f 2//3 5//3 8//3 3//3
f 116//3 119//3 122//3 117//3
f 6//4 1//4 4//4 7//4
f 76//3 98//3 101//3 14//3
f 120//4 115//4 118//4 121//4
f 24//3 26//3 6//3 1//3
f 137//3 139//3 120//3 115//3
f 27//4 23//4 25//4 28//4
f 91//4 78//4 53//4 92//4
f 103//4 94//4 97//4 104//4
f 140//4 136//4 138//4 141//4
f 25//3 28//3 75//3 71//3
f 53//3 92//3 86//3 82//3
f 93//4 81//4 83//4 87//4
f 192//3 193//3 108//3 86//3
f 194//4 188//4 87//4 107//4
f 97//3 104//3 193//3 202//3
f 106//4 96//4 204//4 194//4
f 138//3 141//3 186//3 182//3
f 73//4 70//4 72//4 74//4
f 184//4 181//4 183//4 185//4
f 23//5 27//5 26//5 24//5
f 1//6 6//6 33//6 30//6
f 29//6 34//6 67//6 65//6
f 64//6 68//6 28//6 25//6
f 136//5 140//5 139//5 137//5
f 115//6 120//6 146//6 143//6
f 142//6 147//6 178//6 176//6
f 175//6 179//6 141//6 138//6
f 1//5 6//5 5//5 2//5
f 3//6 8//6 7//6 4//6
f 70//5 73//5 28//5 25//5
f 71//6 75//6 74//6 72//6
f 115//5 120//5 119//5 116//5
f 117//6 122//6 121//6 118//6
f 181//5 184//5 141//5 138//5
f 182//6 186//6 185//6 183//6
f 205//5 206//5 98//5 76//5
f 14//6 101//6 207//6 208//6
f 78//5 91//5 209//5 205//5
f 208//6 210//6 92//6 53//6
f 94//5 103//5 206//5 213//5
f 214//6 207//6 104//6 97//6
f 81//5 93//5 92//5 53//5
f 96//5 106//5 104//5 97//5
f 86//6 110//6 109//6 87//6
usemtl rockingChair.vox_Material_255
f 195//4 187//4 196//4 197//4
f 190//3 198//3 199//3 200//3
f 187//5 195//5 219//5 217//5
f 218//6 220//6 198//6 190//6
